<mxfile host="app.diagrams.net" agent="Mozilla/5.0 (Macintosh; Intel Mac OS X 10_15_7) AppleWebKit/537.36 (KHTML, like Gecko) Chrome/131.0.0.0 Safari/537.36" version="25.0.3">
  <diagram name="ページ1" id="xgNELBmutsNlqP_qv4l0">
    <mxGraphModel dx="942" dy="705" grid="1" gridSize="10" guides="1" tooltips="1" connect="1" arrows="1" fold="1" page="1" pageScale="1" pageWidth="827" pageHeight="1169" math="0" shadow="0">
      <root>
        <mxCell id="0" />
        <mxCell id="1" parent="0" />
        <mxCell id="_0OzKZGMhKdFcqW6u8Nh-1" value="&lt;font style=&quot;font-size: 14px;&quot;&gt;EventBridge&lt;/font&gt;&lt;div&gt;&lt;font style=&quot;font-size: 14px;&quot;&gt;Scheduler&lt;/font&gt;&lt;/div&gt;" style="sketch=0;outlineConnect=0;fontColor=#232F3E;gradientColor=none;fillColor=#E7157B;strokeColor=none;dashed=0;verticalLabelPosition=bottom;verticalAlign=top;align=center;html=1;fontSize=12;fontStyle=0;aspect=fixed;pointerEvents=1;shape=mxgraph.aws4.eventbridge_scheduler;" parent="1" vertex="1">
          <mxGeometry x="470" y="150" width="78" height="78" as="geometry" />
        </mxCell>
        <mxCell id="_0OzKZGMhKdFcqW6u8Nh-2" value="&lt;font style=&quot;font-size: 14px;&quot;&gt;AWS Lambda&lt;/font&gt;" style="sketch=0;outlineConnect=0;fontColor=#232F3E;gradientColor=none;fillColor=#ED7100;strokeColor=none;dashed=0;verticalLabelPosition=bottom;verticalAlign=top;align=center;html=1;fontSize=12;fontStyle=0;aspect=fixed;pointerEvents=1;shape=mxgraph.aws4.lambda_function;" parent="1" vertex="1">
          <mxGeometry x="320" y="160" width="70" height="70" as="geometry" />
        </mxCell>
        <mxCell id="_0OzKZGMhKdFcqW6u8Nh-3" value="&lt;font style=&quot;font-size: 14px;&quot;&gt;EC2&lt;/font&gt;" style="sketch=0;points=[[0,0,0],[0.25,0,0],[0.5,0,0],[0.75,0,0],[1,0,0],[0,1,0],[0.25,1,0],[0.5,1,0],[0.75,1,0],[1,1,0],[0,0.25,0],[0,0.5,0],[0,0.75,0],[1,0.25,0],[1,0.5,0],[1,0.75,0]];outlineConnect=0;fontColor=#232F3E;fillColor=#ED7100;strokeColor=#ffffff;dashed=0;verticalLabelPosition=bottom;verticalAlign=top;align=center;html=1;fontSize=12;fontStyle=0;aspect=fixed;shape=mxgraph.aws4.resourceIcon;resIcon=mxgraph.aws4.ec2;" parent="1" vertex="1">
          <mxGeometry x="316" y="380" width="78" height="78" as="geometry" />
        </mxCell>
        <mxCell id="_0OzKZGMhKdFcqW6u8Nh-5" value="AWS SAM" style="shape=image;verticalLabelPosition=bottom;labelBackgroundColor=default;verticalAlign=top;aspect=fixed;imageAspect=0;image=data:image/svg+xml,PHN2ZyB4bWxucz0iaHR0cDovL3d3dy53My5vcmcvMjAwMC9zdmciIGhlaWdodD0iMzU2IiB3aWR0aD0iMzg4IiB2aWV3Qm94PSIwIDAgMzg4IDM1NiI+JiN4YTsgIDxwYXRoIGQ9Ik0yNzIuOTk3MzE0LDMyMS44NDQyOTkgQzI2NC4yODU0NjEsMzIzLjU2MjYyMiAyNTUuNjE3MTcyLDMyNS41NTYwMzAgMjQ2Ljg1MzA4OCwzMjYuOTQ0NzAyIEMyMjUuNTAzOTgzLDMzMC4zMjc1NzYgMjAzLjk2ODU5NywzMzIuMDIxODIwIDE4Mi4zOTMzNDEsMzMwLjgzODk1OSBDMTY3LjU5ODAwNywzMzAuMDI3NzcxIDE1Mi44NjcxMTEsMzI3Ljg0NTYxMiAxMzguMTQ0OTEzLDMyNS45ODAyODYgQzEzMC45NjEyMjcsMzI1LjA3MDA2OCAxMjMuODYzMjI4LDMyMy40ODM0OTAgMTE2LjA4NTMxMiwzMjEuNzkxODcwIEMxMTQuMjU1MTgwLDMyMS4yNzUyMzggMTEzLjA2NjE3MCwzMjEuMTY5NzY5IDExMS44NzcxNjcsMzIxLjA2NDI3MCBDMTExLjg3NzE2NywzMjEuMDY0MjcwIDExMS45OTE4MDYsMzIxLjA0OTEzMyAxMTEuNzg3ODcyLDMyMC44MDMxNjIgQzExMC4zODIyNDAsMzIwLjAzNTQ2MSAxMDkuMTk1NDg4LDMxOS40NzU1ODYgMTA3Ljk3NjQyNSwzMTguOTk4MjYwIEMxMDAuMjg3NDM3LDMxNS45ODc3MDEgOTIuNTE0MDUzLDMxMy4xNzQ0NjkgODQuOTM2NzUyLDMwOS45MDYwNjcgQzgyLjA0MjIzNiwzMDguNjU3NTYyIDc3LjgyMjYwMSwzMDcuNjQ3NTgzIDc5LjczMzIwMCwzMDIuNTUyNjczIEM3OS44ODY2OTYsMzAyLjE0MzM0MSA3OC42Mjc1MTAsMzAxLjExMjA2MSA3Ny45MTk1MjUsMzAwLjQ4OTUzMiBDNzUuOTMyMDc2LDI5OC43NDIwMDQgNzMuODA0MzU5LDI5Ny4xNDY4ODEgNzEuODg4MDc3LDI5NS4zMjcyNDAgQzY4Ljc1OTIwOSwyOTIuMzU2MjMyIDY3Ljc2ODQ2MywyODkuMjg1MDk1IDcxLjY3MzU2OSwyODYuOTI4NzQxIEM2OS4yNzAxMTEsMjgzLjAyODgzOSA2Ni44MjkxMDksMjc5LjUwNTc5OCA2NC44NzA3OTYsMjc1LjczMjMwMCBDNjMuNjIyMjg4LDI3My4zMjY1MzggNjIuODc1NjYwLDI3MC42NzIzOTQgNjcuMDAyMDA3LDI2OS41NjQ2OTcgQzY3Ljk1OTM1OCwyNjkuMzA3NzA5IDY4LjgwMTY1OSwyNjYuOTgyMDI1IDY4LjkxNTE4NCwyNjUuNTQ2NDE3IEM2OS4xOTM3MTgsMjYyLjAyNDQxNCA2OS4wMTY1MDIsMjU4LjQ2NjQwMCA2OS40ODk4MzgsMjU0LjkyMzcwNiBDNzQuMTEzMjU4LDI1NC45MjgzNzUgNzguMjcxOTU3LDI1NS4wMjU0OTcgODIuNDI1MTk0LDI1NC45MTU5MDkgQzkwLjI0MzY5MCwyNTQuNzA5NjI1IDk4LjE1ODY4NCwyNTMuOTgwOTI3IDEwMy45OTUxNjMsMjYwLjkyOTI2MCBDMTA0LjQxNjQ3MywyNjEuNDMwNzg2IDEwNS4zNDk2ODYsMjYxLjUwMjM4MCAxMDYuOTcwNDUxLDI2Mi4xMzUzNzYgQzEwNS45MTI1MDYsMjYwLjMxODkwOSAxMDUuNDYwOTMwLDI1OS4zMDM4MDIgMTA0LjgwMTY1MSwyNTguNDQ4ODUzIEM5OC41MTcyODgsMjUwLjI5OTU0NSA5NS41NTkxMjgsMjQxLjAyNTIyMyA5NS4wMTI3NzIsMjMwLjgxMDQ3MSBDOTQuMjQ1NjQ0LDIxNi40NjgzODQgOTkuODUwNTI1LDIwNC42NjUzNDQgMTA5LjQwMzE1MiwxOTQuMDU5MzU3IEMxMTIuOTAzNzMyLDE5MS41NTIyNDYgMTE1LjkzNjMzMywxODguOTI2NzczIDExOS4zMzQ2NDEsMTg2LjkyMDg5OCBDMTMzLjUzNjU5MSwxNzguNTM4MTE2IDE0OC40MTExMDIsMTc3Ljk4NzQ4OCAxNjQuMDYwOTEzLDE4My43NDQxMTAgQzE4MC44MDYxNTIsMTkxLjQ3Mjc0OCAxOTAuMzI0NzA3LDIwNC41NDQ4MTUgMTk0LjIzODA2OCwyMjIuMDcxNDI2IEMxOTUuNzk5NjY3LDIxMi45ODQ4OTQgMTk5LjAzNzg4OCwyMDQuODczMDkzIDIwNS4xMzM5MTEsMTk4LjYzNzY1MCBDMjEwLjgyNzgzNSwxOTIuODEzNDYxIDIxNy43MjkwOTUsMTg4LjE2OTYwMSAyMjQuNDk1MjI0LDE4My4wNDI0MTkgQzIyNS44Njg1MTUsMTgyLjkwNDQ4MCAyMjYuODgxMTQ5LDE4Mi44NDEwNjQgMjI3LjgxNzMwNywxODIuNTM5ODg2IEMyNDUuNjM3MzYwLDE3Ni44MDY5MDAgMjYxLjU4MDM4MywxODAuNjU2NTcwIDI3Ni4xMTU4NDUsMTkxLjg5NDgwNiBDMjc3LjI2MTEzOSwxOTIuNzgwMzA0IDI3OC42MDUxMzMsMTkzLjQwODgxMyAyNzkuOTE4Mzk2LDE5NC40OTc1ODkgQzI5NS45MTEzNDYsMjE1LjI5NDcwOCAyOTguMDE0MTkxLDIzNi40ODU0ODkgMjgzLjQxMDAwNCwyNTguNTk1MzA2IEMyODMuMTIxNjEzLDI1OS4wMzE5NTIgMjgzLjI5MzU3OSwyNTkuNzcyNjc1IDI4My4yMDQxOTMsMjYxLjAyMjQwMCBDMjg0Ljg1MTA0NCwyNjAuMjQ5NDUxIDI4Ni4zMjE1NjQsMjYwLjAwNDg4MyAyODcuMDU4MzE5LDI1OS4xMzcyNjggQzI5MC40NzQzOTYsMjU1LjExNDUxNyAyOTQuOTE3Njk0LDI1NC43NzM3NTggMjk5LjcyMTkyNCwyNTQuODg5OTk5IEMzMDYuNTIxODIwLDI1NS4wNTQ0ODkgMzEzLjMyOTM0NiwyNTQuOTAyOTA4IDMyMC4xMzM2MDYsMjU0Ljg4NjM5OCBDMzIwLjEzMzYwNiwyNTQuODg2Mzk4IDMyMC4wOTg3ODUsMjU0Ljk1NDA3MSAzMjAuMDU1NTQyLDI1NS4zOTAwNzYgQzMxOS42ODY4MjksMjYwLjA3NDc5OSAzMTkuMzYxMzg5LDI2NC4zMjM0ODYgMzE5LjAxNzkxNCwyNjguODA3NzM5IEMzMjQuNzQ4NTA1LDI2OS40MTcwNTMgMzI0LjYzNzY5NSwyNzIuODMzNjE4IDMyMi41MjcwMDgsMjc2Ljg2MzQzNCBDMzIwLjcxMjUyNCwyODAuMzI3Nzg5IDMxOC42MTUxMTIsMjgzLjY0Mzk1MSAzMTYuNjA2NTA2LDI4Ny4wODc4NjAgQzMyMC40NzQzOTYsMjkxLjY4ODIzMiAzMTkuOTIyNTc3LDI5Mi42NTUyNDMgMzA4LjM1ODE1NCwzMDIuNDgwMTY0IEMzMDguMDI2MTU0LDMwNC43ODcxNzAgMzA3LjcwMjM5MywzMDcuODQ0MTE2IDMwNi4yMTAyMzYsMzA4LjYwMjY2MSBDMzAwLjQ4NzQ4OCwzMTEuNTExODQxIDI5NC4zNzIxMDEsMzEzLjY0MTYwMiAyODguNDM4NTk5LDMxNi4xNDU5NjYgQzI4NC45MDU2NDAsMzE3LjYzNzA4NSAyODEuNDM4NjI5LDMxOS4yODQzNjMgMjc3Ljk0MTk1NiwzMjAuODYxNDIwIEMyNzcuOTQxOTU2LDMyMC44NjE0MjAgMjc3LjU5MTEyNSwzMjEuMDIwNjMwIDI3Ny4wMjQ3MTksMzIwLjk5MTk0MyBDMjc1LjMwNDYyNiwzMjEuMjU2OTg5IDI3NC4xNTA5NzAsMzIxLjU1MDY1OSAyNzIuOTk3MzE0LDMyMS44NDQyOTkgTTE5My4xNzU0NDYsMjk0LjY5NTE2MCBDMTg5LjAyNzEzMCwyOTUuODE4OTM5IDE4NC44Nzg4MTUsMjk2Ljk0Mjc0OSAxNzkuODg5MjA2LDI5OC4wNTI4MjYgQzE3MS43MDM3MjAsMjk4LjA1MjgyNiAxNjMuNTE4MjM0LDI5OC4wNTI4MjYgMTU0Ljc2MTQyOSwyOTguMDUyODI2IEMxNTguODk1NzgyLDMwNy4zOTc3MzYgMTY1LjczNTUxOSwzMTMuMDExOTAyIDE3NS40OTEyMjYsMzE2LjU1NDg3MSBDMTg3Ljc5MTU2NSwzMTkuNzUwMjQ0IDIwMC4wNjY0NjcsMzIwLjg1Mzk3MyAyMTMuMDE2NDE4LDMxNi4wNzQ4OTAgQzIyMS4zMTA5NTksMzE0LjE1Mzk2MSAyMjYuODA0Nzk0LDMwOC40ODc0ODggMjMxLjU3Mjc1NCwzMDEuOTY5Nzg4IEMyMzIuMzMyNjU3LDMwMC45MzEwNjEgMjMyLjI1ODYyMSwyOTkuMjgyMjU3IDIzMi41NzAxMjksMjk3LjkxNTQ5NyBDMjMxLjE3NTc2NiwyOTcuNjYyMzIzIDIyOS43NzQyMDAsMjk3LjE1ODU2OSAyMjguMzg4MjYwLDI5Ny4xOTg0MjUgQzIyMS42NzEyMzQsMjk3LjM5MTYwMiAyMTQuOTU4Mzc0LDI5Ny43MzA2NTIgMjA3LjQ2MTAxNCwyOTcuODg0OTQ5IEMyMDIuOTIxMDM2LDI5Ni44MjIyOTYgMTk4LjM4MTA3MywyOTUuNzU5NjQ0IDE5My4xNzU0NDYsMjk0LjY5NTE2MCBNMjE3Ljk5NTQzOCwyNjEuMjY1MjU5IEMyMTcuMzE3OTAyLDI1Ny4wODc1NTUgMjE0LjI2NTQ1NywyNTYuMDU4NTAyIDIxMC43MTEyMjcsMjU2LjAzNDQ4NSBDMTk5Ljc1NDY4NCwyNTUuOTYwNDM0IDE4OC43OTcyNzIsMjU2LjAyNTY2NSAxNzcuODQwMzE3LDI1NS45OTQ4ODggQzE3My41NjYyODQsMjU1Ljk4Mjg5NSAxNzEuMDY4MTQ2LDI1OC4wODIzOTcgMTcwLjA4MTkwOSwyNjIuODczMDQ3IEMxNzAuMzcwMjU1LDI2My44MTM2NjAgMTcwLjM3ODMxMSwyNjUuMDI5NDgwIDE3MC45OTAwNjcsMjY1LjY1MjU4OCBDMTc3LjQ5MDY2MiwyNzIuMjczOTU2IDE4My45Mzc5MjcsMjc4Ljk2MTc5MiAxOTAuNzMwNzc0LDI4NS4yNzUyNjkgQzE5My40NDA5NjQsMjg3Ljc5NDE4OSAxOTYuNzAyMzc3LDI4Ni43MjgzMzMgMTk5LjIyMDE1NCwyODQuMjY5ODY3IEMyMDQuOTIzMjAzLDI3OC43MDExMTEgMjEwLjY1MTMwNiwyNzMuMTQ5MTA5IDIxNi4xMTI2NTYsMjY3LjM0ODcyNCBDMjE3LjI5MjI2NywyNjYuMDk1OTE3IDIxNy4zOTA1NjQsMjYzLjgyNTA3MyAyMTcuOTk1NDM4LDI2MS4yNjUyNTkgTTEzMS4zMDI1MzYsMjMwLjIxNDk5NiBDMTMxLjUzMDUwMiwyMzEuMzUwNDE4IDEzMS42NDAzOTYsMjMyLjUyNTQwNiAxMzIuMDA1NjQ2LDIzMy42MTQ4MDcgQzEzNC4zMzQ4MzksMjQwLjU2MTg1OSAxNDEuNzg3Nzk2LDI0NC4xNDkxMzkgMTQ4LjkxMjc5NiwyNDEuODAyNzM0IEMxNTUuNDc1MzExLDIzOS42NDE1NTYgMTU5LjE5MTI4NCwyMzIuMjEwMTQ0IDE1Ny4xNzUzMzksMjI1LjI3ODgzOSBDMTU1LjIyNTIwNCwyMTguNTczODUzIDE0OC4yNDAyNTAsMjE0LjkyMTIwNCAxNDEuMTM0NzM1LDIxNi44OTA3MzIgQzE0MC45NDc1NzEsMjIzLjk5NDQ3NiAxMzkuNjQxOTUzLDIyNS4yMjc3OTggMTMxLjgwMDQ2MSwyMjUuNTI3MzU5IEMxMzEuNjI0NzcxLDIyNi43OTI1NTcgMTMxLjQ0NDE5OSwyMjguMDkyODE5IDEzMS4zMDI1MzYsMjMwLjIxNDk5NiBNMjQ4LjI4MjE1MCwyMTYuODk5NjI4IEMyNDUuNjA1ODA0LDIxNi42MTEzNDMgMjQyLjkyOTQ3NCwyMTYuMzIzMDQ0IDI0MC4xNzk4NDAsMjE2LjAyNjg1NSBDMjQwLjIwMjAyNiwyMjMuOTY4NTM2IDIzOC4zNzExNzAsMjI1LjY5NDQ0MyAyMzEuMzYwNDU4LDIyNS4yMzM5NzggQzIyOC41ODI0ODksMjMzLjA2NTkwMyAyMzMuMzAyMDc4LDI0MS4wODExMzEgMjQxLjM2MjA3NiwyNDIuMjE5NjA0IEMyNDguMjE3NTc1LDI0My4xODc5MjcgMjUzLjcyOTI0OCwyNDAuMDI3NzcxIDI1Ni4wMzU3NjcsMjMzLjgwNjMyMCBDMjU4LjQ1ODAzOCwyMjcuMjcyNjI5IDI1Ni4wNjE2NzYsMjIxLjU1OTk2NyAyNDguMjgyMTUwLDIxNi44OTk2MjggTTI4MC44MzgyNTcsMjYyLjcwMzEyNSBDMjgwLjkyMzIxOCwyNjIuNTUzNDk3IDI4MS4wMDgxNzksMjYyLjQwMzg3MCAyODEuMDkzMTQwLDI2Mi4yNTQyNzIgQzI4MC45NTY2MDQsMjYyLjMxOTY3MiAyODAuODIwMDY4LDI2Mi4zODUxMDEgMjgwLjgzODI1NywyNjIuNzAzMTI1IE0xMDguNDkyNzYwLDI2My40NTUyMzEgQzEwOC40OTI3NjAsMjYzLjQ1NTIzMSAxMDguNTI2NDgyLDI2My41MjMwNzEgMTA4LjQ5Mjc2MCwyNjMuNDU1MjMxIHoiIHN0cm9rZT0ibm9uZSIgb3BhY2l0eT0iMS4wMDAwMDAiIGZpbGw9IiNGRkRGQjMiLz4mI3hhOyAgPHBhdGggZD0iTTMyMC4wODkyOTQsMjU0LjQ4NTkzMSBDMzEzLjMyOTM0NiwyNTQuOTAyOTA4IDMwNi41MjE4MjAsMjU1LjA1NDQ4OSAyOTkuNzIxOTI0LDI1NC44ODk5OTkgQzI5NC45MTc2OTQsMjU0Ljc3Mzc1OCAyOTAuNDc0Mzk2LDI1NS4xMTQ1MTcgMjg3LjA1ODMxOSwyNTkuMTM3MjY4IEMyODYuMzIxNTY0LDI2MC4wMDQ4ODMgMjg0Ljg1MTA0NCwyNjAuMjQ5NDUxIDI4My4yMDQxOTMsMjYxLjAyMjQwMCBDMjgzLjI5MzU3OSwyNTkuNzcyNjc1IDI4My4xMjE2MTMsMjU5LjAzMTk1MiAyODMuNDEwMDA0LDI1OC41OTUzMDYgQzI5OC4wMTQxOTEsMjM2LjQ4NTQ4OSAyOTUuOTExMzQ2LDIxNS4yOTQ3MDggMjgwLjA4NTMyNywxOTQuMTY3NTI2IEMyODQuMDQyODQ3LDE5MC4yNzI5ODAgMjgzLjYyNjU1NiwxODcuMjI5MTExIDI3OS4zNjY5NDMsMTg1LjAzMzY3NiBDMjcxLjYwNTE5NCwxODEuMDMzMjE4IDI2My45OTU2MDUsMTc2LjM2MTM0MyAyNTUuNzU3OTE5LDE3My43NTIzNjUgQzI0NC41OTM4ODcsMTcwLjIxNjU4MyAyMzMuMjc3ODAyLDE3MS42OTk3ODMgMjIyLjQzMDYwMywxNzcuMDIzMzAwIEMyMjMuMDQ0NDM0LDE3OS4yMjQ1NDggMjIzLjU3MTY4NiwxODEuMTE1Mzg3IDIyNC4wOTg5NjksMTgzLjAwNjIyNiBDMjE3LjcyOTA5NSwxODguMTY5NjAxIDIxMC44Mjc4MzUsMTkyLjgxMzQ2MSAyMDUuMTMzOTExLDE5OC42Mzc2NTAgQzE5OS4wMzc4ODgsMjA0Ljg3MzA5MyAxOTUuNzk5NjY3LDIxMi45ODQ4OTQgMTk0LjIzODA2OCwyMjIuMDcxNDI2IEMxOTAuMzI0NzA3LDIwNC41NDQ4MTUgMTgwLjgwNjE1MiwxOTEuNDcyNzQ4IDE2NC4xMjg0NDgsMTgzLjQwNjQ3OSBDMTY1Ljg2Mjk3NiwxNzYuMDA5Nzk2IDE2NS44NDIwNDEsMTc2LjAyODI5MCAxNTguMzczNDc0LDE3NC4wNjcyNDUgQzE0MC40MjQ3MjgsMTY5LjM1NDM4NSAxMjQuMzY3MTk1LDE3My42OTYwMTQgMTA5LjY0MjQyNiwxODQuMjYyNzExIEMxMDMuNzU1MDU4LDE4OC40ODc1NjQgMTAzLjc2NzkyOSwxODkuNDE2MTIyIDEwOS4xMDMzNzgsMTk0LjIyNTk2NyBDOTkuODUwNTI1LDIwNC42NjUzNDQgOTQuMjQ1NjQ0LDIxNi40NjgzODQgOTUuMDEyNzcyLDIzMC44MTA0NzEgQzk1LjU1OTEyOCwyNDEuMDI1MjIzIDk4LjUxNzI4OCwyNTAuMjk5NTQ1IDEwNC44MDE2NTEsMjU4LjQ0ODg1MyBDMTA1LjQ2MDkzMCwyNTkuMzAzODAyIDEwNS45MTI1MDYsMjYwLjMxODkwOSAxMDYuOTcwNDUxLDI2Mi4xMzUzNzYgQzEwNS4zNDk2ODYsMjYxLjUwMjM4MCAxMDQuNDE2NDczLDI2MS40MzA3ODYgMTAzLjk5NTE2MywyNjAuOTI5MjYwIEM5OC4xNTg2ODQsMjUzLjk4MDkyNyA5MC4yNDM2OTAsMjU0LjcwOTYyNSA4Mi40MjUxOTQsMjU0LjkxNTkwOSBDNzguMjcxOTU3LDI1NS4wMjU0OTcgNzQuMTEzMjU4LDI1NC45MjgzNzUgNjkuNDY1ODc0LDI1NC41Mjk4NzcgQzY4Ljk2ODc0MiwyNTMuMDc3NDY5IDY4Ljk2Mjc2OSwyNTIuMDE5NzkxIDY4Ljk1Njc5NSwyNTAuOTYyMDk3IEM2OS45Nzk2MzcsMjQ1LjQxNTk3MCA3MS40MDE2NDksMjM5LjkwNjIxOSA3MS45MTE0NjksMjM0LjMxMzMyNCBDNzIuNDA3MTUwLDIyOC44NzU1MDQgNzEuOTQ5MzAzLDIyMy4zNTI0NDggNzEuOTQzMTg0LDIxNy44NjY4MDYgQzcxLjkzMjA3NiwyMDcuOTAzNDczIDcxLjE2ODQyNywxOTcuODYwNDQzIDcyLjE3OTQwNSwxODguMDAwNDI3IEM3My4wODg1MTYsMTc5LjEzMzcxMyA3NS45NTY1NDMsMTcwLjQ2Nzg1MCA3Ny45MjE3MzgsMTYxLjA5MzI2MiBDNzcuOTE1MjIyLDE2MC4zMDkxNzQgNzcuOTQ3NDc5LDE2MC4xNDUyMDMgNzguMzM1Njc4LDE1OS44ODkwNjkgQzkxLjg1NzU0NCwxNTMuNDYyODQ1IDEwNS45MjU1NzUsMTUxLjIyNzIwMyAxMjAuMzQwNTA4LDE1MS4xNjg5MTUgQzE2NS42NDMzNTYsMTUwLjk4NTY4NyAyMTAuOTQ3NDE4LDE1MC44NzQ5MzkgMjU2LjI1MDAzMSwxNTEuMDI3MDY5IEMyNjYuODY3ODg5LDE1MS4wNjI3MTQgMjc3LjYyMjgzMywxNTEuNDEyMzIzIDI4OC4wNTA3MjAsMTUzLjE3NzIwMCBDMjk1LjY1NDM4OCwxNTQuNDY0MDgxIDMwMi44MjQ2MTUsMTU4LjMxMjE4MCAzMTAuMTg4MDQ5LDE2MS4wMTg1MDkgQzMxMS45NTQ3NzMsMTY4LjMzMTg5NCAzMTQuNjcwNTYzLDE3NS41NjgwMDggMzE1LjI3Mzg2NSwxODIuOTc2MTM1IEMzMTYuMjY4MjUwLDE5NS4xODY0NDcgMzE2LjI3NDIwMCwyMDcuNTE2Njc4IDMxNS45OTIwOTYsMjE5Ljc4MDE1MSBDMzE1LjcyMzIzNiwyMzEuNDY2MTcxIDMxNi4yMzIwNTYsMjQyLjkzODQzMSAzMjAuMDg5Mjk0LDI1NC40ODU5MzEgeiIgc3Ryb2tlPSJub25lIiBvcGFjaXR5PSIxLjAwMDAwMCIgZmlsbD0iI0JGQkZCRiIvPiYjeGE7ICA8cGF0aCBkPSJNMTYzLjk1MTcyMSwzMy44ODY2NDIgQzE2My42MjU5NjEsMjkuODYyMTI5IDE2NS43OTU3MDAsMjcuNTY3Mzc3IDE3MC4wOTQyMDgsMjYuMDg4MTI3IEMxODYuODcxNDQ1LDI2LjA5Mjc0NSAyMDIuODQxODg4LDI2LjE5ODE1NiAyMTguODEyMzE3LDI2LjMwMzU2OCBDMjIyLjA5MzcwNCwyNy44NzYzNzkgMjI0LjE0NTYxNSwzMC4yNjcxNDcgMjI0LjAxNTU5NCwzNC45NzQ2ODIgQzIyNC4wMTUyNDQsNDguMzAwNTIyIDIyMy44NDQ2MzUsNjAuNzY5NDY2IDIyNC4xMjA3NzMsNzMuMjI4NTA4IEMyMjQuMTg1OTg5LDc2LjE3MTA4MiAyMjUuMTA5MTYxLDc5LjUyMDkzNSAyMjYuNzUwMzk3LDgxLjkyMzIxOCBDMjMxLjg5Njk0Miw4OS40NTYyNzYgMjM0LjE2OTQ3OSw5Ny41NTgyNTggMjM0LjA4Mjk0NywxMDYuNjQ0MDI4IEMyMzQuMDAxMjA1LDExNS4yMjQ3MDEgMjMxLjAyNjQxMywxMjIuNzQ1NTkwIDIyNi42MDI0NzgsMTMwLjEwOTM5MCBDMjI0LjU2MjMxNywxMzAuNDQyMTY5IDIyMi45MzQ4OTEsMTMwLjkzODcwNSAyMjEuMzA2OTc2LDEzMC45NDAzNTMgQzIwMS41NTE0ODMsMTMwLjk2MDQ2NCAxODEuNzk1OTI5LDEzMC45MDc2NjkgMTYxLjk3Mzk5OSwxMzAuNTM5MDkzIEMxNTkuODQwNDI0LDEyNS45MjA5NzUgMTU3LjE3ODIyMywxMjEuODE3MzYwIDE1NS44MTk1OTUsMTE3LjMxOTkzOSBDMTUyLjAxMjA3MCwxMDQuNzE1OTA0IDE1My42MzUyNjksOTIuODgwNzM3IDE2MS45MzI5OTksODIuMTk0NTE5IEMxNjMuMjI3NDQ4LDgwLjUyNzQ1MSAxNjMuODg1ODgwLDc3Ljk0ODc5OSAxNjMuOTEwMzU1LDc1Ljc4MTIwNCBDMTY0LjA2ODAyNCw2MS44MTc5NzQgMTYzLjk2NzQ5OSw0Ny44NTE4MzAgMTYzLjk1MTcyMSwzMy44ODY2NDIgTTE5Ni4xMDg5NzgsODEuOTkzNzI5IEMxOTEuOTE2OTYyLDgxLjczNjAyMyAxODcuNzI0OTQ1LDgxLjQ3ODMyNSAxODMuNjAzNDg1LDgxLjIyNDk2MCBDMTgzLjYwMzQ4NSw4NS4wMzgxMzIgMTgzLjYwMzQ4NSw4Ny45Mzg0MDggMTgzLjYwMzQ4NSw5MS4yMjYwODkgQzE4OS4wMDA0NTgsODkuNjQ3MjQwIDE5MS4wMTU2NDAsOTIuNzg0NjUzIDE5Mi43NTk4NTcsOTYuNzE3MTc4IEMxOTUuMzg3MDA5LDEwMi42NDAzODEgMTk4LjMyNzE3OSwxMDguNDIzODM2IDIwMS4wNDU3MDAsMTE0LjMwNzYzMiBDMjA0LjUwMzY0NywxMjEuNzkxNzU2IDIwNS44MDAxMjUsMTIyLjQwMDAwMiAyMTQuNjA0OTE5LDEyMC4xNzc5OTQgQzIxNC42MDQ5MTksMTE3LjI5MjQ3MyAyMTQuNjA0OTE5LDExNC4zNjU2OTIgMjE0LjYwNDkxOSwxMTEuNDM4OTE5IEMyMTQuMTkzODQ4LDExMS42ODI4NDYgMjEzLjc4Mjc2MSwxMTEuOTI2NzgxIDIxMy4zNzE2ODksMTEyLjE3MDcxNSBDMjExLjc3NzIyMiwxMTAuNTQ0MjM1IDIwOS42NzY5NTYsMTA5LjE3OTQ4OSAyMDguNjc2MzQ2LDEwNy4yNDU3MjAgQzIwNC40NzU0MTgsOTkuMTI3MTM2IDIwMC42MDM1MDAsOTAuODM4Mjk1IDE5Ni4xMDg5NzgsODEuOTkzNzI5IE0xNzcuMzYyMDQ1LDExOS4xMzc2NjUgQzE3Ny44NDUyMzAsMTE5LjczODYzMiAxNzguMjU4MjI0LDEyMC43ODQxOTUgMTc4LjgyMjIwNSwxMjAuODczMTk5IEMxODYuMDg0NjQxLDEyMi4wMTk0MjQgMTg3LjIwNjAyNCwxMjEuMzg5NDczIDE5MC41MTM4NTUsMTE0LjY5NjYzMiBDMTk0LjU5MTM3MCwxMDYuNDQ2NDU3IDE5NC4xNzc4MjYsMTAzLjE2NDAyNCAxODguMTk1NDY1LDk3LjAzMDA5MCBDMTg0LjcwNDIzOSwxMDQuMjAyMzAxIDE4MS4yMzUxNTMsMTExLjMyODk2NCAxNzcuMzYyMDQ1LDExOS4xMzc2NjUgeiIgc3Ryb2tlPSJub25lIiBvcGFjaXR5PSIxLjAwMDAwMCIgZmlsbD0iI0ZFQzcwMSIvPiYjeGE7ICA8cGF0aCBkPSJNMTYyLjA0MDM5MCwxMzAuODczODQwIEMxODEuNzk1OTI5LDEzMC45MDc2NjkgMjAxLjU1MTQ4MywxMzAuOTYwNDY0IDIyMS4zMDY5NzYsMTMwLjk0MDM1MyBDMjIyLjkzNDg5MSwxMzAuOTM4NzA1IDIyNC41NjIzMTcsMTMwLjQ0MjE2OSAyMjYuOTg0ODMzLDEzMC4yNjg3ODQgQzIzNy41Mjc1NDIsMTMwLjU1NjM1MSAyNDcuMjc1MzkxLDEzMC43NTA3MDIgMjU3LjQ4MDU5MSwxMzAuOTYzMjg3IEMyNzAuMjkwOTI0LDEzMS40NTgxNjAgMjgyLjYzNDQ5MSwxMzEuOTgzNDQ0IDI5NC4yMzIwNTYsMTM4LjA5ODAyMiBDMjk5Ljc3NzEwMCwxNDIuNzY3MzAzIDMwNS4xMDQxNTYsMTQ3LjE3ODgzMyAzMTAuMjMxNTM3LDE1MS44MTEzNzEgQzMxMy4xMzI5MDQsMTU0LjQzMjcyNCAzMTQuMTQ0NTYyLDE1Ny41NDM5NDUgMzExLjAwMDg1NCwxNjAuODQxNDAwIEMzMTEuMDAwODU0LDE2MC44NDE0MDAgMzEwLjYwNjY4OSwxNjAuOTg2MjgyIDMxMC4zOTczNjksMTYxLjAwMjM5NiBDMzAyLjgyNDYxNSwxNTguMzEyMTgwIDI5NS42NTQzODgsMTU0LjQ2NDA4MSAyODguMDUwNzIwLDE1My4xNzcyMDAgQzI3Ny42MjI4MzMsMTUxLjQxMjMyMyAyNjYuODY3ODg5LDE1MS4wNjI3MTQgMjU2LjI1MDAzMSwxNTEuMDI3MDY5IEMyMTAuOTQ3NDE4LDE1MC44NzQ5MzkgMTY1LjY0MzM1NiwxNTAuOTg1Njg3IDEyMC4zNDA1MDgsMTUxLjE2ODkxNSBDMTA1LjkyNTU3NSwxNTEuMjI3MjAzIDkxLjg1NzU0NCwxNTMuNDYyODQ1IDc4LjAzNzQ4MywxNTkuNzI3MjM0IEM3NC43NDY0MDcsMTU3LjgyOTk0MSA3NC4zNDYxMzAsMTU1LjgxMTkwNSA3Ni45MDkwNjUsMTUzLjU5MzM2OSBDODMuMjc1MTc3LDE0OC4wODI3MTggODkuNjUzMjA2LDE0Mi41ODU4NjEgOTYuMzQ5Mjk3LDEzNi45MTI3MzUgQzEwNy45MzkxNzEsMTMxLjc3MjcyMCAxMTkuOTI3MDEwLDEzMS4xODA3MTAgMTMyLjQ0MTA1NSwxMzAuOTQ4NzkyIEMxNDIuNjIwOTExLDEzMC45MzY3MzcgMTUyLjMzMDY0MywxMzAuOTA1Mjg5IDE2Mi4wNDAzOTAsMTMwLjg3Mzg0MCB6IiBzdHJva2U9Im5vbmUiIG9wYWNpdHk9IjEuMDAwMDAwIiBmaWxsPSIjRkU4RTAyIi8+JiN4YTsgIDxwYXRoIGQ9Ik0xNjEuOTczOTk5LDEzMC41MzkwOTMgQzE1Mi4zMzA2NDMsMTMwLjkwNTI4OSAxNDIuNjIwOTExLDEzMC45MzY3MzcgMTMyLjQ0OTg2MCwxMzAuNDg5NTE3IEMxMzEuOTkxNTQ3LDEyOC41MTQ3NzEgMTMxLjk2MzY1NCwxMjcuMDE3OTA2IDEzMi4wMDIzMDQsMTI1LjUyMjc1OCBDMTMyLjQyODc4NywxMDkuMDIzNTM3IDEzMC4xNjAxNDEsMTEwLjk1ODk4NCAxMTcuOTYyNzA4LDExMC41MjQ4ODcgQzExOS41NTYwMDAsMTAyLjIxMjQyNSAxMjEuMDg3OTY3LDk0LjMwNzgwOCAxMjIuNzQ4MTg0LDg2LjQzMDIwNiBDMTIzLjM1ODE4NSw4My41MzU3ODkgMTI0LjI3MTQ0Niw4MC43MDUyNzYgMTI1LjE1MTc5NCw3Ny43OTI4NzAgQzEyNS4yNTcyMTAsNzcuNzQwMTI4IDEyNS40MzEzODksNzcuOTAxMDcwIDEyNS44Mjk2MTMsNzcuOTEwOTA0IEMxMjcuMTQ0ODkwLDc3LjI2MzIwNiAxMjguMDYxOTM1LDc2LjYwNTY2NyAxMjguOTg2ODc3LDc1Ljk3NTc3NyBDMTI4Ljk5NDc4MSw3Ni4wMDM0MzMgMTI4Ljk0MDY3NCw3NS45ODM4NzEgMTI5LjEzMjM4NSw3NS45MDQzMjcgQzEyOS41NzE1MzMsNzUuNjg5OTAzIDEyOS43NzQzMzgsNzUuNTA1ODIxIDEzMC4yMzYyMzcsNzUuMTM2MjAwIEMxMzEuNjYwMzM5LDc0LjM4MTY0NSAxMzIuNzgwNjcwLDczLjc2MzQ1MSAxMzQuMjkwMjUzLDczLjA5ODU0MSBDMTM3Ljk4OTA1OSw3Mi4wMDgzNTQgMTQxLjMxNTIwMSw3MS4wMTQxODMgMTQ0LjYwNDI2Myw2OS45MDk2MjIgQzE0OS4zMTk1MzQsNjguMzI2MDk2IDE1MC4yNDYxMjQsNjUuOTM3NDg1IDE0Ni45MDUyNTgsNjIuMzM2MDgyIEMxNDIuMjA5MjU5LDU3LjI3Mzg2NSAxMzcuMDI0Mjc3LDUyLjY2NTI4MyAxMzIuMDQ4NDAxLDQ3Ljg2MjcwMSBDMTM1Ljc4NDMxNyw0Ni40OTgwNTUgMTM4LjE2MzA1NSw0My41NDk1MTEgMTQxLjA0ODkyMCw0MS4wNTE5OTQgQzE0NC43ODEwNTIsMzcuODIyMDkwIDE1MC40Njg4MjYsMzYuNzM4OTcyIDE1NS40MzUzNDksMzUuMDk2ODU1IEMxNTcuODUwNDc5LDM0LjI5ODMxMyAxNjAuNTQwMTAwLDM0LjMyOTg5OSAxNjMuNTI4NTk1LDMzLjkzNjE2NSBDMTYzLjk2NzQ5OSw0Ny44NTE4MzAgMTY0LjA2ODAyNCw2MS44MTc5NzQgMTYzLjkxMDM1NSw3NS43ODEyMDQgQzE2My44ODU4ODAsNzcuOTQ4Nzk5IDE2My4yMjc0NDgsODAuNTI3NDUxIDE2MS45MzI5OTksODIuMTk0NTE5IEMxNTMuNjM1MjY5LDkyLjg4MDczNyAxNTIuMDEyMDcwLDEwNC43MTU5MDQgMTU1LjgxOTU5NSwxMTcuMzE5OTM5IEMxNTcuMTc4MjIzLDEyMS44MTczNjAgMTU5Ljg0MDQyNCwxMjUuOTIwOTc1IDE2MS45NzM5OTksMTMwLjUzOTA5MyB6IiBzdHJva2U9Im5vbmUiIG9wYWNpdHk9IjEuMDAwMDAwIiBmaWxsPSIjRkZCNzAyIi8+JiN4YTsgIDxwYXRoIGQ9Ik0yNTcuMDIzMjU0LDEzMC45NDUwNTMgQzI0Ny4yNzUzOTEsMTMwLjc1MDcwMiAyMzcuNTI3NTQyLDEzMC41NTYzNTEgMjI3LjM5NzMzOSwxMzAuMjAyNTkxIEMyMzEuMDI2NDEzLDEyMi43NDU1OTAgMjM0LjAwMTIwNSwxMTUuMjI0NzAxIDIzNC4wODI5NDcsMTA2LjY0NDAyOCBDMjM0LjE2OTQ3OSw5Ny41NTgyNTggMjMxLjg5Njk0Miw4OS40NTYyNzYgMjI2Ljc1MDM5Nyw4MS45MjMyMTggQzIyNS4xMDkxNjEsNzkuNTIwOTM1IDIyNC4xODU5ODksNzYuMTcxMDgyIDIyNC4xMjA3NzMsNzMuMjI4NTA4IEMyMjMuODQ0NjM1LDYwLjc2OTQ2NiAyMjQuMDE1MjQ0LDQ4LjMwMDUyMiAyMjQuMDM1NjYwLDM1LjM1OTMzNyBDMjMwLjcyODc2MCwzNi4xMTM3MTIgMjM3LjQ0NTkwOCwzNy4xODI0NjUgMjQ0LjA1ODgyMywzOC43MDQyNTQgQzI0NS40NTc2MjYsMzkuMDI2MTQ2IDI0Ni44NzQzMTMsNDAuODA5MzY4IDI0Ny41ODU1MTAsNDIuMjYwOTA2IEMyNDkuMDg0MTY3LDQ1LjMxOTU2NSAyNTEuMDI2ODI1LDQ3LjUzMjc2MSAyNTQuNzgwMzY1LDQ4LjM5MjE1NSBDMjUwLjQxMjQ5MSw1My4yNDEyMzAgMjQ1LjYwNTU3Niw1Ny41NDI4NzAgMjQxLjI1MTMyOCw2Mi4yNjIxNzcgQzIzOC4wMDQ4MDcsNjUuNzgwODY5IDIzOC45ODMxODUsNjguNTg4Mjk1IDI0My40MzAwMjMsNjkuOTcyMDU0IEMyNDcuMjE3MDI2LDcxLjE1MDQ5MCAyNTEuMDMzMTU3LDcyLjIzNTIzNyAyNTUuMDcyMTEzLDczLjU5ODMyOCBDMjU3Ljg4MjA4MCw3NS4xNDQwMjAgMjYwLjQ1NjMyOSw3Ni40NTI4MTIgMjYzLjAyMDMyNSw3OC4xODU1NjIgQzI2My4zOTk1NjcsODAuMzI2OTczIDI2My43OTU0NDEsODIuMDQyOTg0IDI2NC4xNzc1MjEsODMuNzYyMDc3IEMyNjYuMTIxMTI0LDkyLjUwNzA1NyAyNjguMDYxMTU3LDEwMS4yNTI4MzEgMjY5LjU4OTM1NSwxMTAuMDE1Nzg1IEMyNjcuMjI2OTkwLDExMC4zNTM4MzYgMjY1LjI2MzQ1OCwxMTEuMDEwMzg0IDI2My4zMzExNDYsMTEwLjkyODcwMyBDMjU4LjU1MDkzNCwxMTAuNzI2NjE2IDI1Ni43NTA0NTgsMTEyLjkxNTcyNiAyNTYuOTU1OTMzLDExNy41MjU5ODYgQzI1Ny4xNTQ5MDcsMTIxLjk5MTEzNSAyNTcuMDE0NTg3LDEyNi40NzE0MjAgMjU3LjAyMzI1NCwxMzAuOTQ1MDUzIHoiIHN0cm9rZT0ibm9uZSIgb3BhY2l0eT0iMS4wMDAwMDAiIGZpbGw9IiNGRkI3MDIiLz4mI3hhOyAgPHBhdGggZD0iTTEyNS4wNDYzNzEsNzcuODQ1NjEyIEMxMjQuMjcxNDQ2LDgwLjcwNTI3NiAxMjMuMzU4MTg1LDgzLjUzNTc4OSAxMjIuNzQ4MTg0LDg2LjQzMDIwNiBDMTIxLjA4Nzk2Nyw5NC4zMDc4MDggMTE5LjU1NjAwMCwxMDIuMjEyNDI1IDExNy41MDc3MTMsMTEwLjUzNTUyMiBDMTE0LjU1MDIyNCwxMTAuOTY5ODAzIDExMS45NjEzMjcsMTEwLjU1NTYzNCAxMDkuNTk0NTQzLDExMS4xMDI2MDAgQzEwNy40MDE4MDIsMTExLjYwOTM0NCAxMDQuNDE4Nzg1LDExMi42Mjc1MTggMTAzLjU2OTg0NywxMTQuMzE3NjM1IEMxMDAuMzkxMTA2LDEyMC42NDYwMDQgOTcuODgwMzQ4LDEyNy4zMTcxMzEgOTUuMzA0MTMxLDEzMy45MzE3OTMgQzk0Ljk4MDU3NiwxMzQuNzYyNTU4IDk1Ljc1ODc0MywxMzYuMDIyNDE1IDk2LjAyNjQ1MSwxMzcuMDgzNDUwIEM4OS42NTMyMDYsMTQyLjU4NTg2MSA4My4yNzUxNzcsMTQ4LjA4MjcxOCA3Ni45MDkwNjUsMTUzLjU5MzM2OSBDNzQuMzQ2MTMwLDE1NS44MTE5MDUgNzQuNzQ2NDA3LDE1Ny44Mjk5NDEgNzcuNjgxNTQ5LDE1OS44MTkzOTcgQzc3Ljk0NzQ3OSwxNjAuMTQ1MjAzIDc3LjkxNTIyMiwxNjAuMzA5MTc0IDc3LjgxODY5NSwxNjAuNzE1MzYzIEM3MS43MjM2MzMsMTYzLjk1MzIwMSA2OC42NzcwODYsMTYzLjg1ODkwMiA2Ni42ODE3MjUsMTYwLjAyNzgxNyBDNjUuNjA2MTQwLDE1Ny45NjI3MjMgNjUuMTEwMzk3LDE1NS4zODQ4NDIgNjUuMDcyMTU5LDE1My4wMjY2NDIgQzY0LjkwNDcwMSwxNDIuNjk5ODQ0IDY0LjM4Njc5NSwxMzIuMzIzODgzIDY1LjEzOTAwOCwxMjIuMDQ5NDMxIEM2Ni4zNzQ0NDMsMTA1LjE3NDY2MCA3MS4zNjI5MzgsODkuNDE4NzcwIDgzLjAzNTg5Niw3Ni42MTgzMTcgQzg2Ljk5Njc5Niw3Mi4yNzQ4NDkgOTEuOTIyNjQ2LDY4LjgxMTM0MCA5Ni43ODYxNzEsNjUuMTc2MDc5IEM5Mi44ODkxODMsNzQuODM3Mzk1IDg4LjQ1NDExNyw4NC4yMDIwNjUgODQuNDgxNTgzLDkzLjc1ODk5NSBDODMuNzQ2NzE5LDk1LjUyNjg5NCA4NC4xMzM3NzQsOTkuMTc5MDM5IDg1LjMzMjYwMyw5OS45ODU3ODYgQzg2Ljk1MTgzNiwxMDEuMDc1NDYyIDkwLjM1NzgzNCwxMDEuMTA4MTI0IDkyLjExMTgzMiwxMDAuMDgxNTg5IEM5Ni4zNDM3ODgsOTcuNjA0ODEzIDEwMC4wNjE1ODQsOTQuMjQ5NTM1IDEwNC4yOTk0ODQsOTEuMDg0NDg4IEMxMTEuNDIzNjM3LDg2LjU2MjE4NyAxMTguMjM1MDA4LDgyLjIwMzg5NiAxMjUuMDQ2MzcxLDc3Ljg0NTYxMiB6IiBzdHJva2U9Im5vbmUiIG9wYWNpdHk9IjEuMDAwMDAwIiBmaWxsPSIjRkRBMTAzIi8+JiN4YTsgIDxwYXRoIGQ9Ik0yNzAuMDAyNDQxLDEwOS45OTgzMjkgQzI2OC4wNjExNTcsMTAxLjI1MjgzMSAyNjYuMTIxMTI0LDkyLjUwNzA1NyAyNjQuMTc3NTIxLDgzLjc2MjA3NyBDMjYzLjc5NTQ0MSw4Mi4wNDI5ODQgMjYzLjM5OTU2Nyw4MC4zMjY5NzMgMjYzLjM2NDQ0MSw3OC4yODk4NDEgQzI3MC44MDA0MTUsODIuNjA5NjA0IDI3Ny44ODE5ODksODcuMjQ5MDY5IDI4NS4xNTg4NDQsOTIuMTY1NTczIEMyODkuNDM1NzkxLDk1LjIyMTEzOCAyOTMuMjQ0NDQ2LDk4LjYwMjE4MCAyOTcuNjc1MzU0LDEwMC42MTAwMDEgQzMwMi4xNzE1NzAsMTAyLjY0NzQyMyAzMDQuNzczMjg1LDEwMC4xNDgxMjUgMzAzLjk5MDc1Myw5NS4yNTM0NzEgQzMwMy41MjE4MjAsOTIuMzIwNDEyIDMwMi44NzQ0ODEsODkuMzI0OTY2IDMwMS43MTMzNzksODYuNjExNzE3IEMyOTkuMDAwNDI3LDgwLjI3MTk1NyAyOTUuOTI5MTA4LDc0LjA4NTU2NCAyOTMuMDAyODk5LDY3LjgzNzA1MSBDMzAwLjc3ODc3OCw3Mi43NDc2OTYgMzA2LjI4MTk1Miw3OS43MjgyNzkgMzExLjA5MTM3MCw4Ny40MDg1NjIgQzMxOC43NzQyOTIsOTkuNjc3NDgzIDMyMi41ODgxOTYsMTEzLjA5MDg5NyAzMjIuOTUwODY3LDEyNy40NjU5ODEgQzMyMy4xOTQ0MjcsMTM3LjExOTk0OSAzMjMuMTQyNTc4LDE0Ni43ODgwMTAgMzIyLjk0NTI1MSwxNTYuNDQ0MDc3IEMzMjIuODE4MDU0LDE2Mi42Njg3MzIgMzE4LjA0NDgwMCwxNjQuNTY3MjE1IDMxMS4zNDQ0MjEsMTYxLjAwOTUyMSBDMzE0LjE0NDU2MiwxNTcuNTQzOTQ1IDMxMy4xMzI5MDQsMTU0LjQzMjcyNCAzMTAuMjMxNTM3LDE1MS44MTEzNzEgQzMwNS4xMDQxNTYsMTQ3LjE3ODgzMyAyOTkuNzc3MTAwLDE0Mi43NjczMDMgMjk0LjIzNzAwMCwxMzcuNzIzMTYwIEMyOTEuNTU3MDA3LDEzMC42Nzg4NDggMjg5LjI1NzM1NSwxMjQuMTQyMzE5IDI4Ni43NjM4ODUsMTE3LjY4MDU5NSBDMjg0Ljc2MDM0NSwxMTIuNDg4NTE4IDI4MS4xNjAyNDgsMTA5LjkxMDIwMiAyNzUuMjg1Njc1LDExMC44ODQyNDcgQzI3My42MTkzNTQsMTExLjE2MDUzMCAyNzEuNzY4NjE2LDExMC4zMjQzMzMgMjcwLjAwMjQ0MSwxMDkuOTk4MzI5IHoiIHN0cm9rZT0ibm9uZSIgb3BhY2l0eT0iMS4wMDAwMDAiIGZpbGw9IiNGREExMDMiLz4mI3hhOyAgPHBhdGggZD0iTTEwMy45ODY3MTAsOTEuMjQ4NTA1IEMxMDAuMDYxNTg0LDk0LjI0OTUzNSA5Ni4zNDM3ODgsOTcuNjA0ODEzIDkyLjExMTgzMiwxMDAuMDgxNTg5IEM5MC4zNTc4MzQsMTAxLjEwODEyNCA4Ni45NTE4MzYsMTAxLjA3NTQ2MiA4NS4zMzI2MDMsOTkuOTg1Nzg2IEM4NC4xMzM3NzQsOTkuMTc5MDM5IDgzLjc0NjcxOSw5NS41MjY4OTQgODQuNDgxNTgzLDkzLjc1ODk5NSBDODguNDU0MTE3LDg0LjIwMjA2NSA5Mi44ODkxODMsNzQuODM3Mzk1IDk3LjEzNTA5NCw2NS4wMTgxMjAgQzEwMy44NDMyOTIsNTguNTAwNTQ5IDExMC41ODQzMzUsNTIuMzc0NzU2IDExNy4zMTc4NDgsNDYuMjQwNjg1IEMxMjEuMDM4MjU0LDQyLjg1MTQ3OSAxMjQuNzUzNzA4LDQyLjczMjA0OCAxMjguNTU4NzkyLDQ2LjEzMTU2MSBDMTI5LjM3NzQyNiw0Ni44NjI5MzggMTMwLjM5MTk2OCw0Ny4zNzUwMzggMTMxLjY4MjM0Myw0Ny45MjU0MjMgQzEzNy4wMjQyNzcsNTIuNjY1MjgzIDE0Mi4yMDkyNTksNTcuMjczODY1IDE0Ni45MDUyNTgsNjIuMzM2MDgyIEMxNTAuMjQ2MTI0LDY1LjkzNzQ4NSAxNDkuMzE5NTM0LDY4LjMyNjA5NiAxNDQuNjA0MjYzLDY5LjkwOTYyMiBDMTQxLjMxNTIwMSw3MS4wMTQxODMgMTM3Ljk4OTA1OSw3Mi4wMDgzNTQgMTM0LjAyMjM2OSw3Mi45MDY2NDcgQzEzMC44ODc1ODksNzAuMzMzODE3IDEyOC41MjY1ODEsNjcuNzY1Njg2IDEyNS44NjcwNzMsNjUuNTU3MDA3IEMxMjQuOTcyMjgyLDY0LjgxMzg5NiAxMjIuNjk2MzEyLDY0LjMwMTg4OCAxMjIuMTA1OTU3LDY0Ljg0MDMwOSBDMTE0LjAyNTEwMSw3Mi4yMTAyNDMgMTA2LjQ0MzA0Nyw3OS45OTYzMjMgMTAzLjk4NjcxMCw5MS4yNDg1MDUgeiIgc3Ryb2tlPSJub25lIiBvcGFjaXR5PSIxLjAwMDAwMCIgZmlsbD0iI0MxQkZCRCIvPiYjeGE7ICA8cGF0aCBkPSJNMjkyLjg3NDkwOCw2Ny41MzQ0NTQgQzI5NS45MjkxMDgsNzQuMDg1NTY0IDI5OS4wMDA0MjcsODAuMjcxOTU3IDMwMS43MTMzNzksODYuNjExNzE3IEMzMDIuODc0NDgxLDg5LjMyNDk2NiAzMDMuNTIxODIwLDkyLjMyMDQxMiAzMDMuOTkwNzUzLDk1LjI1MzQ3MSBDMzA0Ljc3MzI4NSwxMDAuMTQ4MTI1IDMwMi4xNzE1NzAsMTAyLjY0NzQyMyAyOTcuNjc1MzU0LDEwMC42MTAwMDEgQzI5My4yNDQ0NDYsOTguNjAyMTgwIDI4OS40MzU3OTEsOTUuMjIxMTM4IDI4NS4xMTE2OTQsOTEuODA5OTkwIEMyODEuMDc1MTY1LDg0Ljc5MzI1MSAyNzguMDYyNDA4LDc3Ljc0NDMzMSAyNzMuMzE4NDIwLDcyLjE2ODM1MCBDMjY0LjQyMzE4Nyw2MS43MTMxNDIgMjYzLjIwMTE3Miw2Mi4xMjUzOTcgMjU0LjgzNjQxMSw3My4zNjE0MzUgQzI1MS4wMzMxNTcsNzIuMjM1MjM3IDI0Ny4yMTcwMjYsNzEuMTUwNDkwIDI0My40MzAwMjMsNjkuOTcyMDU0IEMyMzguOTgzMTg1LDY4LjU4ODI5NSAyMzguMDA0ODA3LDY1Ljc4MDg2OSAyNDEuMjUxMzI4LDYyLjI2MjE3NyBDMjQ1LjYwNTU3Niw1Ny41NDI4NzAgMjUwLjQxMjQ5MSw1My4yNDEyMzAgMjU1LjE3NjQyMiw0OC40NTA4MjEgQzI2My42NTk0MjQsNDIuNjM2NjIwIDI2NC45MzAzNTksNDIuMTczNzU5IDI3Mi40NjMxMDQsNDguMjAzMjQ3IEMyNzkuNjc4NTI4LDUzLjk3ODczNyAyODYuMDIwODc0LDYwLjg0NDk5MCAyOTIuODc0OTA4LDY3LjUzNDQ1NCB6IiBzdHJva2U9Im5vbmUiIG9wYWNpdHk9IjEuMDAwMDAwIiBmaWxsPSIjQzBCRkJFIi8+JiN4YTsgIDxwYXRoIGQ9Ik02OC41ODY3NTQsMjUxLjE0OTIwMCBDNjguOTYyNzY5LDI1Mi4wMTk3OTEgNjguOTY4NzQyLDI1My4wNzc0NjkgNjguOTk4NjcyLDI1NC41MjkwMDcgQzY5LjAxNjUwMiwyNTguNDY2NDAwIDY5LjE5MzcxOCwyNjIuMDI0NDE0IDY4LjkxNTE4NCwyNjUuNTQ2NDE3IEM2OC44MDE2NTksMjY2Ljk4MjAyNSA2Ny45NTkzNTgsMjY5LjMwNzcwOSA2Ny4wMDIwMDcsMjY5LjU2NDY5NyBDNjIuODc1NjYwLDI3MC42NzIzOTQgNjMuNjIyMjg4LDI3My4zMjY1MzggNjQuODcwNzk2LDI3NS43MzIzMDAgQzY2LjgyOTEwOSwyNzkuNTA1Nzk4IDY5LjI3MDExMSwyODMuMDI4ODM5IDcxLjY3MzU2OSwyODYuOTI4NzQxIEM2Ny43Njg0NjMsMjg5LjI4NTA5NSA2OC43NTkyMDksMjkyLjM1NjIzMiA3MS44ODgwNzcsMjk1LjMyNzI0MCBDNzMuODA0MzU5LDI5Ny4xNDY4ODEgNzUuOTMyMDc2LDI5OC43NDIwMDQgNzcuOTE5NTI1LDMwMC40ODk1MzIgQzc4LjYyNzUxMCwzMDEuMTEyMDYxIDc5Ljg4NjY5NiwzMDIuMTQzMzQxIDc5LjczMzIwMCwzMDIuNTUyNjczIEM3Ny44MjI2MDEsMzA3LjY0NzU4MyA4Mi4wNDIyMzYsMzA4LjY1NzU2MiA4NC45MzY3NTIsMzA5LjkwNjA2NyBDOTIuNTE0MDUzLDMxMy4xNzQ0NjkgMTAwLjI4NzQzNywzMTUuOTg3NzAxIDEwNy45NzY0MjUsMzE4Ljk5ODI2MCBDMTA5LjE5NTQ4OCwzMTkuNDc1NTg2IDExMC4zODIyNDAsMzIwLjAzNTQ2MSAxMTEuNzkyMDA3LDMyMC44NjA4MDkgQzk2Ljc2NTQ2NSwzMTkuMDk2NzEwIDgyLjEwNzE2MiwzMTUuMDYwMjExIDY4LjQzMjY5MywzMDcuOTM2ODkwIEM2Ny4xMDQ3NDQsMzA3LjI0NTA4NyA2Ni41OTI2OTAsMzA0Ljk4NzA5MSA2NS43MDE5MTIsMzAzLjQ1NjExNiBDNjYuMDg2MjA1LDMwMy4yNDE3OTEgNjYuNDcwNDk3LDMwMy4wMjc0OTYgNjYuODU0NzkwLDMwMi44MTMyMDIgQzYzLjM5MTc0MywyOTkuODgyMDgwIDU5Ljc5ODA0NiwyOTcuMDg1OTA3IDU2LjU0NTg0OSwyOTMuOTM3MDEyIEM1NS41NzkzNzYsMjkzLjAwMTI1MSA1NC43NTQ1MzIsMjkwLjIxNTQ4NSA1NS4yNTU2ODgsMjg5LjczODM3MyBDNTkuMTEwMDEyLDI4Ni4wNjg4NzggNTUuMjkxMjgzLDI4My45NjcyMjQgNTMuODcyNjM1LDI4MS4zOTQ3NzUgQzUxLjk3NTIyMCwyNzcuOTU0MTkzIDUwLjAzNTc5NywyNzQuNTM2Nzc0IDQ3LjkyMTcwNywyNzAuNzY1NjU2IEM1MC44MzI5NTQsMjY5Ljg2Mjc2MiA1Mi42NTY5NzEsMjY5LjI5NzA4OSA1NS4wMTQyOTAsMjY4LjU2NjAxMCBDNTQuNjkxMzM4LDI2NS4xNTQ4MTYgNTQuMzQ2NDI0LDI2MS40NjU4ODEgNTMuOTkxNTE2LDI1Ny43Nzc4OTMgQzUzLjcyMzgyNywyNTQuOTk2MjE2IDU0Ljk0NjEwNiwyNTMuODE0MjQwIDU3Ljc1NjY4MCwyNTMuOTU4MzEzIEM2MC40MTQ2MjMsMjU0LjA5NDU0MyA2My4xMTQ5ODMsMjU0LjIxMTg1MyA2NS43MzM5MjUsMjUzLjg2NDQyNiBDNjYuNjU3MDc0LDI1My43NDE5NDMgNjcuMzk0NDkzLDI1Mi4yMTk1MjggNjguNTg2NzU0LDI1MS4xNDkyMDAgeiIgc3Ryb2tlPSJub25lIiBvcGFjaXR5PSIxLjAwMDAwMCIgZmlsbD0iI0ZGRjBEQSIvPiYjeGE7ICA8cGF0aCBkPSJNMjc4LjM2NDgwNywzMjAuOTI2NzI3IEMyODEuNDM4NjI5LDMxOS4yODQzNjMgMjg0LjkwNTY0MCwzMTcuNjM3MDg1IDI4OC40Mzg1OTksMzE2LjE0NTk2NiBDMjk0LjM3MjEwMSwzMTMuNjQxNjAyIDMwMC40ODc0ODgsMzExLjUxMTg0MSAzMDYuMjEwMjM2LDMwOC42MDI2NjEgQzMwNy43MDIzOTMsMzA3Ljg0NDExNiAzMDguMDI2MTU0LDMwNC43ODcxNzAgMzA4LjM1ODE1NCwzMDIuNDgwMTY0IEMzMTkuOTIyNTc3LDI5Mi42NTUyNDMgMzIwLjQ3NDM5NiwyOTEuNjg4MjMyIDMxNi42MDY1MDYsMjg3LjA4Nzg2MCBDMzE4LjYxNTExMiwyODMuNjQzOTUxIDMyMC43MTI1MjQsMjgwLjMyNzc4OSAzMjIuNTI3MDA4LDI3Ni44NjM0MzQgQzMyNC42Mzc2OTUsMjcyLjgzMzYxOCAzMjQuNzQ4NTA1LDI2OS40MTcwNTMgMzE5LjAxNzkxNCwyNjguODA3NzM5IEMzMTkuMzYxMzg5LDI2NC4zMjM0ODYgMzE5LjY4NjgyOSwyNjAuMDc0Nzk5IDMyMC4wMjIyNzgsMjU1LjM3MTU4MiBDMzIzLjg2MDA0NiwyNTQuOTQ1NDE5IDMyNy42ODg4NzMsMjU0LjkyODgxOCAzMzEuNTE1MjI4LDI1NS4wMTg0MDIgQzMzMy45NDk0MzIsMjU1LjA3NTM5NCAzMzUuNjI1NjcxLDI1NS4yNjM0NDMgMzM0LjI4Njk4NywyNTguNzgzMjk1IEMzMzMuMTc2MTE3LDI2MS43MDQzNDYgMzMzLjQ2MjczOCwyNjUuMTU2OTUyIDMzMy4xMTQ4NjgsMjY4LjUyMjk4MCBDMzM1LjMwNjkxNSwyNjkuMjg3MjMxIDMzNy41MDk1NTIsMjcwLjA1NTIwNiAzNDAuNDQ3ODQ1LDI3MS4wNzk2NTEgQzMzNi45NTM3MDUsMjc2Ljc0NzY1MCAzMzMuNzEzNjg0LDI4Mi4wMDM0NDggMzMwLjMwNjI0NCwyODcuNTMwODIzIEMzMzEuMjIyOTMxLDI4OC4wMjk4NDYgMzMyLjU2Mzc4MiwyODguNzU5Nzk2IDMzNS4xMzIzNTUsMjkwLjE1ODA1MSBDMzMwLjU0NzQ1NSwyOTQuNDM4ODEyIDMyNi4yNzkzMjcsMjk4LjQyMzgyOCAzMjMuMjg3NDQ1LDMwMS4yMTcyNTUgQzMyMS41Mjk5NjgsMzA0LjM5OTYyOCAzMjAuOTU5Njg2LDMwNy4yMjU0NjQgMzE5LjM2NDUwMiwzMDguMDM3MDc5IEMzMDYuNTcwODkyLDMxNC41NDY3ODMgMjkyLjk0NTgzMSwzMTguNjUxMzA2IDI3OC4zNjQ4MDcsMzIwLjkyNjcyNyB6IiBzdHJva2U9Im5vbmUiIG9wYWNpdHk9IjEuMDAwMDAwIiBmaWxsPSIjRkZGMURBIi8+JiN4YTsgIDxwYXRoIGQ9Ik0yMTguODI1NjM4LDI1LjgzOTgyMSBDMjAyLjg0MTg4OCwyNi4xOTgxNTYgMTg2Ljg3MTQ0NSwyNi4wOTI3NDUgMTcwLjQzMzY4NSwyNS45MzI4NjkgQzE3MC4zMTkzODIsMjUuNTk5NDQzIDE3MC42NzM0NjIsMjUuMDc1MTk5IDE3MS4wMjUyMzgsMjUuMDc2NzY1IEMxODYuOTYzMjcyLDI1LjE0NzYxNyAyMDIuOTAxMTA4LDI1LjI2NDU1MyAyMTguODI1NjM4LDI1LjgzOTgyMSB6IiBzdHJva2U9Im5vbmUiIG9wYWNpdHk9IjEuMDAwMDAwIiBmaWxsPSIjRkJFNkEzIi8+JiN4YTsgIDxwYXRoIGQ9Ik0xMTIuMDQ5MDQyLDMyMS40MDU0NTcgQzExMy4wNjYxNzAsMzIxLjE2OTc2OSAxMTQuMjU1MTgwLDMyMS4yNzUyMzggMTE1LjcxOTA0MCwzMjEuNjEyODU0IEMxMTQuNzM2MjQ0LDMyMS44MTIyMjUgMTEzLjQ3ODU4NCwzMjEuNzc5NDQ5IDExMi4wNDkwNDIsMzIxLjQwNTQ1NyB6IiBzdHJva2U9Im5vbmUiIG9wYWNpdHk9IjEuMDAwMDAwIiBmaWxsPSIjRkZGMERBIi8+JiN4YTsgIDxwYXRoIGQ9Ik0yNzMuMzc5OTEzLDMyMS45MjE2OTIgQzI3NC4xNTA5NzAsMzIxLjU1MDY1OSAyNzUuMzA0NjI2LDMyMS4yNTY5ODkgMjc2LjgzMjA2MiwzMjAuOTkxNTE2IEMyNzYuMDU4MDc1LDMyMS4zNDYxOTEgMjc0LjkxMDI3OCwzMjEuNjcyNjM4IDI3My4zNzk5MTMsMzIxLjkyMTY5MiB6IiBzdHJva2U9Im5vbmUiIG9wYWNpdHk9IjEuMDAwMDAwIiBmaWxsPSIjRkZGMURBIi8+JiN4YTsgIDxwYXRoIGQ9Ik0xNzQuOTM1NzMwLDMxNi4wMzUwNjUgQzE2NS43MzU1MTksMzEzLjAxMTkwMiAxNTguODk1NzgyLDMwNy4zOTc3MzYgMTU0Ljc2MTQyOSwyOTguMDUyODI2IEMxNjMuNTE4MjM0LDI5OC4wNTI4MjYgMTcxLjcwMzcyMCwyOTguMDUyODI2IDE4MC4zNDg2MDIsMjk4LjQ4NDU1OCBDMTgxLjE1MTA0NywzMDYuMjE5MzkxIDE4MS45NDk3OTksMzA3LjAwNTE4OCAxODkuMTUyNjQ5LDMwNi45NzgxMTkgQzE5MC43NzcwNTQsMzA2Ljk3MjAxNSAxOTIuNDAxMDAxLDMwNi44Mzg4MzcgMTk0LjQ3NTM0MiwzMDYuODMyNzY0IEMyMDcuMTYwNjkwLDMwNy4yODMxNzMgMjA3LjE2MDY5MCwzMDcuMjgzMTczIDIwOC4yNDQwNDksMjk4LjAxODAwNSBDMjE0Ljk1ODM3NCwyOTcuNzMwNjUyIDIyMS42NzEyMzQsMjk3LjM5MTYwMiAyMjguMzg4MjYwLDI5Ny4xOTg0MjUgQzIyOS43NzQyMDAsMjk3LjE1ODU2OSAyMzEuMTc1NzY2LDI5Ny42NjIzMjMgMjMyLjU3MDEyOSwyOTcuOTE1NDk3IEMyMzIuMjU4NjIxLDI5OS4yODIyNTcgMjMyLjMzMjY1NywzMDAuOTMxMDYxIDIzMS41NzI3NTQsMzAxLjk2OTc4OCBDMjI2LjgwNDc5NCwzMDguNDg3NDg4IDIyMS4zMTA5NTksMzE0LjE1Mzk2MSAyMTIuMzI5MjI0LDMxNS44Mjc0NTQgQzE5OS4zNTg5MDIsMzExLjg4Mzg1MCAxODcuMTIyMTc3LDMxMS45MzE1NDkgMTc0LjkzNTczMCwzMTYuMDM1MDY1IHoiIHN0cm9rZT0ibm9uZSIgb3BhY2l0eT0iMS4wMDAwMDAiIGZpbGw9IiNEQUJGOUUiLz4mI3hhOyAgPHBhdGggZD0iTTE3MC4xMTg4NjYsMjYyLjE3MjA1OCBDMTcxLjA2ODE0NiwyNTguMDgyMzk3IDE3My41NjYyODQsMjU1Ljk4Mjg5NSAxNzcuODQwMzE3LDI1NS45OTQ4ODggQzE4OC43OTcyNzIsMjU2LjAyNTY2NSAxOTkuNzU0Njg0LDI1NS45NjA0MzQgMjEwLjcxMTIyNywyNTYuMDM0NDg1IEMyMTQuMjY1NDU3LDI1Ni4wNTg1MDIgMjE3LjMxNzkwMiwyNTcuMDg3NTU1IDIxNy43MzIxMTcsMjYxLjg0OTM5NiBDMjExLjAwMTQ4MCwyNjcuMjY1NzE3IDIwNC43MDAyMTEsMjcyLjM1MjE3MyAxOTcuOTU0MTMyLDI3Ni43NTc1NjggQzE5Ni4xOTA1MzYsMjc3LjkwOTI0MSAxOTIuNDIzODg5LDI3Ny45MTUxOTIgMTkwLjY0MTcwOCwyNzYuNzc4NDEyIEMxODMuNTcxNjcxLDI3Mi4yNjg3NjggMTc2LjkyMzQxNiwyNjcuMDk3OTAwIDE3MC4xMTg4NjYsMjYyLjE3MjA1OCB6IiBzdHJva2U9Im5vbmUiIG9wYWNpdHk9IjEuMDAwMDAwIiBmaWxsPSIjRDhCRTlEIi8+JiN4YTsgIDxwYXRoIGQ9Ik0xMzEuMjgzMDgxLDIyOS44MDQwNDcgQzEzMS40NDQxOTksMjI4LjA5MjgxOSAxMzEuNjI0NzcxLDIyNi43OTI1NTcgMTMxLjgwMDQ2MSwyMjUuNTI3MzU5IEMxMzkuNjQxOTUzLDIyNS4yMjc3OTggMTQwLjk0NzU3MSwyMjMuOTk0NDc2IDE0MS4xMzQ3MzUsMjE2Ljg5MDczMiBDMTQ4LjI0MDI1MCwyMTQuOTIxMjA0IDE1NS4yMjUyMDQsMjE4LjU3Mzg1MyAxNTcuMTc1MzM5LDIyNS4yNzg4MzkgQzE1OS4xOTEyODQsMjMyLjIxMDE0NCAxNTUuNDc1MzExLDIzOS42NDE1NTYgMTQ4LjkxMjc5NiwyNDEuODAyNzM0IEMxNDEuNzg3Nzk2LDI0NC4xNDkxMzkgMTM0LjMzNDgzOSwyNDAuNTYxODU5IDEzMi4wMDU2NDYsMjMzLjYxNDgwNyBDMTMxLjY0MDM5NiwyMzIuNTI1NDA2IDEzMS41MzA1MDIsMjMxLjM1MDQxOCAxMzEuMjgzMDgxLDIyOS44MDQwNDcgeiIgc3Ryb2tlPSJub25lIiBvcGFjaXR5PSIxLjAwMDAwMCIgZmlsbD0iIzA4MDcwNSIvPiYjeGE7ICA8cGF0aCBkPSJNMjQ4LjY1ODcyMiwyMTcuMDA4NzQzIEMyNTYuMDYxNjc2LDIyMS41NTk5NjcgMjU4LjQ1ODAzOCwyMjcuMjcyNjI5IDI1Ni4wMzU3NjcsMjMzLjgwNjMyMCBDMjUzLjcyOTI0OCwyNDAuMDI3NzcxIDI0OC4yMTc1NzUsMjQzLjE4NzkyNyAyNDEuMzYyMDc2LDI0Mi4yMTk2MDQgQzIzMy4zMDIwNzgsMjQxLjA4MTEzMSAyMjguNTgyNDg5LDIzMy4wNjU5MDMgMjMxLjM2MDQ1OCwyMjUuMjMzOTc4IEMyMzguMzcxMTcwLDIyNS42OTQ0NDMgMjQwLjIwMjAyNiwyMjMuOTY4NTM2IDI0MC4xNzk4NDAsMjE2LjAyNjg1NSBDMjQyLjkyOTQ3NCwyMTYuMzIzMDQ0IDI0NS42MDU4MDQsMjE2LjYxMTM0MyAyNDguNjU4NzIyLDIxNy4wMDg3NDMgeiIgc3Ryb2tlPSJub25lIiBvcGFjaXR5PSIxLjAwMDAwMCIgZmlsbD0iIzA4MDYwNSIvPiYjeGE7ICA8cGF0aCBkPSJNMTA5LjQwMzE1MiwxOTQuMDU5MzU3IEMxMDMuNzY3OTI5LDE4OS40MTYxMjIgMTAzLjc1NTA1OCwxODguNDg3NTY0IDEwOS42NDI0MjYsMTg0LjI2MjcxMSBDMTI0LjM2NzE5NSwxNzMuNjk2MDE0IDE0MC40MjQ3MjgsMTY5LjM1NDM4NSAxNTguMzczNDc0LDE3NC4wNjcyNDUgQzE2NS44NDIwNDEsMTc2LjAyODI5MCAxNjUuODYyOTc2LDE3Ni4wMDk3OTYgMTYzLjc3MTc1OSwxODMuMjY2MDA2IEMxNDguNDExMTAyLDE3Ny45ODc0ODggMTMzLjUzNjU5MSwxNzguNTM4MTE2IDExOS4zMzQ2NDEsMTg2LjkyMDg5OCBDMTE1LjkzNjMzMywxODguOTI2NzczIDExMi45MDM3MzIsMTkxLjU1MjI0NiAxMDkuNDAzMTUyLDE5NC4wNTkzNTcgeiIgc3Ryb2tlPSJub25lIiBvcGFjaXR5PSIxLjAwMDAwMCIgZmlsbD0iI0E3OTE3RSIvPiYjeGE7ICA8cGF0aCBkPSJNMjI0LjQ5NTIwOSwxODMuMDQyNDA0IEMyMjMuNTcxNjg2LDE4MS4xMTUzODcgMjIzLjA0NDQzNCwxNzkuMjI0NTQ4IDIyMi40MzA2MDMsMTc3LjAyMzMwMCBDMjMzLjI3NzgwMiwxNzEuNjk5NzgzIDI0NC41OTM4ODcsMTcwLjIxNjU4MyAyNTUuNzU3OTE5LDE3My43NTIzNjUgQzI2My45OTU2MDUsMTc2LjM2MTM0MyAyNzEuNjA1MTk0LDE4MS4wMzMyMTggMjc5LjM2Njk0MywxODUuMDMzNjc2IEMyODMuNjI2NTU2LDE4Ny4yMjkxMTEgMjg0LjA0Mjg0NywxOTAuMjcyOTgwIDI4MC4wMjM3MTIsMTkzLjgyNjY5MSBDMjc4LjYwNTEzMywxOTMuNDA4ODEzIDI3Ny4yNjExMzksMTkyLjc4MDMwNCAyNzYuMTE1ODQ1LDE5MS44OTQ4MDYgQzI2MS41ODAzODMsMTgwLjY1NjU3MCAyNDUuNjM3MzYwLDE3Ni44MDY5MDAgMjI3LjgxNzMwNywxODIuNTM5ODg2IEMyMjYuODgxMTQ5LDE4Mi44NDEwNjQgMjI1Ljg2ODUxNSwxODIuOTA0NDgwIDIyNC40OTUyMDksMTgzLjA0MjQwNCB6IiBzdHJva2U9Im5vbmUiIG9wYWNpdHk9IjEuMDAwMDAwIiBmaWxsPSIjQTc5MTdFIi8+JiN4YTsgIDxwYXRoIGQ9Ik0xNzAuMTAwMzg4LDI2Mi41MjI1NTIgQzE3Ni45MjM0MTYsMjY3LjA5NzkwMCAxODMuNTcxNjcxLDI3Mi4yNjg3NjggMTkwLjY0MTcwOCwyNzYuNzc4NDEyIEMxOTIuNDIzODg5LDI3Ny45MTUxOTIgMTk2LjE5MDUzNiwyNzcuOTA5MjQxIDE5Ny45NTQxMzIsMjc2Ljc1NzU2OCBDMjA0LjcwMDIxMSwyNzIuMzUyMTczIDIxMS4wMDE0ODAsMjY3LjI2NTcxNyAyMTcuNzI3ODc1LDI2Mi4yMjgzMzMgQzIxNy4zOTA1NjQsMjYzLjgyNTA3MyAyMTcuMjkyMjY3LDI2Ni4wOTU5MTcgMjE2LjExMjY1NiwyNjcuMzQ4NzI0IEMyMTAuNjUxMzA2LDI3My4xNDkxMDkgMjA0LjkyMzIwMywyNzguNzAxMTExIDE5OS4yMjAxNTQsMjg0LjI2OTg2NyBDMTk2LjcwMjM3NywyODYuNzI4MzMzIDE5My40NDA5NjQsMjg3Ljc5NDE4OSAxOTAuNzMwNzc0LDI4NS4yNzUyNjkgQzE4My45Mzc5MjcsMjc4Ljk2MTc5MiAxNzcuNDkwNjYyLDI3Mi4yNzM5NTYgMTcwLjk5MDA2NywyNjUuNjUyNTg4IEMxNzAuMzc4MzExLDI2NS4wMjk0ODAgMTcwLjM3MDI1NSwyNjMuODEzNjYwIDE3MC4xMDAzODgsMjYyLjUyMjU1MiB6IiBzdHJva2U9Im5vbmUiIG9wYWNpdHk9IjEuMDAwMDAwIiBmaWxsPSIjQTk5MzdGIi8+JiN4YTsgIDxwYXRoIGQ9Ik0xNzUuMjEzNDcwLDMxNi4yOTQ5ODMgQzE4Ny4xMjIxNzcsMzExLjkzMTU0OSAxOTkuMzU4OTAyLDMxMS44ODM4NTAgMjExLjk1NjE0NiwzMTUuODQzODcyIEMyMDAuMDY2NDY3LDMyMC44NTM5NzMgMTg3Ljc5MTU2NSwzMTkuNzUwMjQ0IDE3NS4yMTM0NzAsMzE2LjI5NDk4MyB6IiBzdHJva2U9Im5vbmUiIG9wYWNpdHk9IjEuMDAwMDAwIiBmaWxsPSIjQjQ5RTg4Ii8+JiN4YTsgIDxwYXRoIGQ9Ik0yMDcuODUyNTM5LDI5Ny45NTE0NzcgQzIwNy4xNjA2OTAsMzA3LjI4MzE3MyAyMDcuMTYwNjkwLDMwNy4yODMxNzMgMTk0LjQ2NzMxNiwzMDYuMzkxNzI0IEMxOTMuOTUzMDc5LDMwMi4xNTM2ODcgMTkzLjg5NzA3OSwyOTguNDI1MzIzIDE5My44NDEwOTUsMjk0LjY5Njk5MSBDMTk4LjM4MTA3MywyOTUuNzU5NjQ0IDIwMi45MjEwMzYsMjk2LjgyMjI5NiAyMDcuODUyNTM5LDI5Ny45NTE0NzcgeiIgc3Ryb2tlPSJub25lIiBvcGFjaXR5PSIxLjAwMDAwMCIgZmlsbD0iI0ZFRkRGQyIvPiYjeGE7ICA8cGF0aCBkPSJNMTkzLjUwODI3MCwyOTQuNjk2MDc1IEMxOTMuODk3MDc5LDI5OC40MjUzMjMgMTkzLjk1MzA3OSwzMDIuMTUzNjg3IDE5NC4wMTcxMjAsMzA2LjMyMzA5MCBDMTkyLjQwMTAwMSwzMDYuODM4ODM3IDE5MC43NzcwNTQsMzA2Ljk3MjAxNSAxODkuMTUyNjQ5LDMwNi45NzgxMTkgQzE4MS45NDk3OTksMzA3LjAwNTE4OCAxODEuMTUxMDQ3LDMwNi4yMTkzOTEgMTgwLjc2OTI1NywyOTguNDkxNDU1IEMxODQuODc4ODE1LDI5Ni45NDI3NDkgMTg5LjAyNzEzMCwyOTUuODE4OTM5IDE5My41MDgyNzAsMjk0LjY5NjA3NSB6IiBzdHJva2U9Im5vbmUiIG9wYWNpdHk9IjEuMDAwMDAwIiBmaWxsPSIjRkNGOUYzIi8+JiN4YTsgIDxwYXRoIGQ9Ik0yODAuNzYwOTI1LDI2Mi41NzY4NDMgQzI4MC44MjAwNjgsMjYyLjM4NTEwMSAyODAuOTU2NjA0LDI2Mi4zMTk2NzIgMjgxLjA5MzE0MCwyNjIuMjU0MjcyIEMyODEuMDA4MTc5LDI2Mi40MDM4NzAgMjgwLjkyMzIxOCwyNjIuNTUzNDk3IDI4MC43NjA5MjUsMjYyLjU3Njg0MyB6IiBzdHJva2U9Im5vbmUiIG9wYWNpdHk9IjEuMDAwMDAwIiBmaWxsPSIjQkZCRkJGIi8+JiN4YTsgIDxwYXRoIGQ9Ik0xMDguNTA5NjIxLDI2My40ODkxMzYgQzEwOC41MjY0ODIsMjYzLjUyMzA3MSAxMDguNDkyNzYwLDI2My40NTUyMzEgMTA4LjUwOTYyMSwyNjMuNDg5MTM2IHoiIHN0cm9rZT0ibm9uZSIgb3BhY2l0eT0iMS4wMDAwMDAiIGZpbGw9IiNCRkJGQkYiLz4mI3hhOyAgPHBhdGggZD0iTTE5Ni4zNjAwNDYsODIuMzAyNzY1IEMyMDAuNjAzNTAwLDkwLjgzODI5NSAyMDQuNDc1NDE4LDk5LjEyNzEzNiAyMDguNjc2MzQ2LDEwNy4yNDU3MjAgQzIwOS42NzY5NTYsMTA5LjE3OTQ4OSAyMTEuNzc3MjIyLDExMC41NDQyMzUgMjEzLjM3MTY4OSwxMTIuMTcwNzE1IEMyMTMuNzgyNzYxLDExMS45MjY3ODEgMjE0LjE5Mzg0OCwxMTEuNjgyODQ2IDIxNC42MDQ5MTksMTExLjQzODkxOSBDMjE0LjYwNDkxOSwxMTQuMzY1NjkyIDIxNC42MDQ5MTksMTE3LjI5MjQ3MyAyMTQuNjA0OTE5LDEyMC4xNzc5OTQgQzIwNS44MDAxMjUsMTIyLjQwMDAwMiAyMDQuNTAzNjQ3LDEyMS43OTE3NTYgMjAxLjA0NTcwMCwxMTQuMzA3NjMyIEMxOTguMzI3MTc5LDEwOC40MjM4MzYgMTk1LjM4NzAwOSwxMDIuNjQwMzgxIDE5Mi43NTk4NTcsOTYuNzE3MTc4IEMxOTEuMDE1NjQwLDkyLjc4NDY1MyAxODkuMDAwNDU4LDg5LjY0NzI0MCAxODMuNjAzNDg1LDkxLjIyNjA4OSBDMTgzLjYwMzQ4NSw4Ny45Mzg0MDggMTgzLjYwMzQ4NSw4NS4wMzgxMzIgMTgzLjYwMzQ4NSw4MS4yMjQ5NjAgQzE4Ny43MjQ5NDUsODEuNDc4MzI1IDE5MS45MTY5NjIsODEuNzM2MDIzIDE5Ni4zNjAwNDYsODIuMzAyNzY1IHoiIHN0cm9rZT0ibm9uZSIgb3BhY2l0eT0iMS4wMDAwMDAiIGZpbGw9IiMwRTBBMDEiLz4mI3hhOyAgPHBhdGggZD0iTTE3Ny41NjQwNTYsMTE4Ljc5NjY0NiBDMTgxLjIzNTE1MywxMTEuMzI4OTY0IDE4NC43MDQyMzksMTA0LjIwMjMwMSAxODguMTk1NDY1LDk3LjAzMDA5MCBDMTk0LjE3NzgyNiwxMDMuMTY0MDI0IDE5NC41OTEzNzAsMTA2LjQ0NjQ1NyAxOTAuNTEzODU1LDExNC42OTY2MzIgQzE4Ny4yMDYwMjQsMTIxLjM4OTQ3MyAxODYuMDg0NjQxLDEyMi4wMTk0MjQgMTc4LjgyMjIwNSwxMjAuODczMTk5IEMxNzguMjU4MjI0LDEyMC43ODQxOTUgMTc3Ljg0NTIzMCwxMTkuNzM4NjMyIDE3Ny41NjQwNTYsMTE4Ljc5NjY0NiB6IiBzdHJva2U9Im5vbmUiIG9wYWNpdHk9IjEuMDAwMDAwIiBmaWxsPSIjMEQwOTAxIi8+JiN4YTsgIDxwYXRoIGQ9Ik05Ni4zNDkyOTcsMTM2LjkxMjczNSBDOTUuNzU4NzQzLDEzNi4wMjI0MTUgOTQuOTgwNTc2LDEzNC43NjI1NTggOTUuMzA0MTMxLDEzMy45MzE3OTMgQzk3Ljg4MDM0OCwxMjcuMzE3MTMxIDEwMC4zOTExMDYsMTIwLjY0NjAwNCAxMDMuNTY5ODQ3LDExNC4zMTc2MzUgQzEwNC40MTg3ODUsMTEyLjYyNzUxOCAxMDcuNDAxODAyLDExMS42MDkzNDQgMTA5LjU5NDU0MywxMTEuMTAyNjAwIEMxMTEuOTYxMzI3LDExMC41NTU2MzQgMTE0LjU1MDIyNCwxMTAuOTY5ODAzIDExNy40OTcyMjMsMTEwLjk1NDA3MSBDMTMwLjE2MDE0MSwxMTAuOTU4OTg0IDEzMi40Mjg3ODcsMTA5LjAyMzUzNyAxMzIuMDAyMzA0LDEyNS41MjI3NTggQzEzMS45NjM2NTQsMTI3LjAxNzkwNiAxMzEuOTkxNTQ3LDEyOC41MTQ3NzEgMTMxLjk3OTczNiwxMzAuNDcwMTIzIEMxMTkuOTI3MDEwLDEzMS4xODA3MTAgMTA3LjkzOTE3MSwxMzEuNzcyNzIwIDk2LjM0OTI5NywxMzYuOTEyNzM1IHoiIHN0cm9rZT0ibm9uZSIgb3BhY2l0eT0iMS4wMDAwMDAiIGZpbGw9IiNGRkM3MDEiLz4mI3hhOyAgPHBhdGggZD0iTTI2OS41ODkzNTUsMTEwLjAxNTc4NSBDMjcxLjc2ODYxNiwxMTAuMzI0MzMzIDI3My42MTkzNTQsMTExLjE2MDUzMCAyNzUuMjg1Njc1LDExMC44ODQyNDcgQzI4MS4xNjAyNDgsMTA5LjkxMDIwMiAyODQuNzYwMzQ1LDExMi40ODg1MTggMjg2Ljc2Mzg4NSwxMTcuNjgwNTk1IEMyODkuMjU3MzU1LDEyNC4xNDIzMTkgMjkxLjU1NzAwNywxMzAuNjc4ODQ4IDI5My45MzU0MjUsMTM3LjU1Nzk1MyBDMjgyLjYzNDQ5MSwxMzEuOTgzNDQ0IDI3MC4yOTA5MjQsMTMxLjQ1ODE2MCAyNTcuNDgwNTkxLDEzMC45NjMyODcgQzI1Ny4wMTQ1ODcsMTI2LjQ3MTQyMCAyNTcuMTU0OTA3LDEyMS45OTExMzUgMjU2Ljk1NTkzMywxMTcuNTI1OTg2IEMyNTYuNzUwNDU4LDExMi45MTU3MjYgMjU4LjU1MDkzNCwxMTAuNzI2NjE2IDI2My4zMzExNDYsMTEwLjkyODcwMyBDMjY1LjI2MzQ1OCwxMTEuMDEwMzg0IDI2Ny4yMjY5OTAsMTEwLjM1MzgzNiAyNjkuNTg5MzU1LDExMC4wMTU3ODUgeiIgc3Ryb2tlPSJub25lIiBvcGFjaXR5PSIxLjAwMDAwMCIgZmlsbD0iI0ZGQzcwMSIvPiYjeGE7ICA8cGF0aCBkPSJNMTA0LjI5OTQ4NCw5MS4wODQ0ODggQzEwNi40NDMwNDcsNzkuOTk2MzIzIDExNC4wMjUxMDEsNzIuMjEwMjQzIDEyMi4xMDU5NTcsNjQuODQwMzA5IEMxMjIuNjk2MzEyLDY0LjMwMTg4OCAxMjQuOTcyMjgyLDY0LjgxMzg5NiAxMjUuODY3MDczLDY1LjU1NzAwNyBDMTI4LjUyNjU4MSw2Ny43NjU2ODYgMTMwLjg4NzU4OSw3MC4zMzM4MTcgMTMzLjYzMzE0OCw3Mi45NTMzNTQgQzEzMi43ODA2NzAsNzMuNzYzNDUxIDEzMS42NjAzMzksNzQuMzgxNjQ1IDEzMC4wMjExMTgsNzUuMTY2MjgzIEMxMjkuMjQyMDUwLDc1LjQ4Njc3OCAxMjkuMDU0ODU1LDc1LjcwMzgyNyAxMjguOTQwNjc0LDc1Ljk4Mzg3MSBDMTI4Ljk0MDY3NCw3NS45ODM4NzEgMTI4Ljk5NDc4MSw3Ni4wMDM0MzMgMTI4LjY0NzMwOCw3Ni4wMjUwODUgQzEyNy4zNDM2NzQsNzYuNjY0ODQxIDEyNi4zODc1MzUsNzcuMjgyOTU5IDEyNS40MzEzODksNzcuOTAxMDcwIEMxMjUuNDMxMzg5LDc3LjkwMTA3MCAxMjUuMjU3MjEwLDc3Ljc0MDEyOCAxMjUuMTUxNzk0LDc3Ljc5Mjg3MCBDMTE4LjIzNTAwOCw4Mi4yMDM4OTYgMTExLjQyMzYzNyw4Ni41NjIxODcgMTA0LjI5OTQ4NCw5MS4wODQ0ODggeiIgc3Ryb2tlPSJub25lIiBvcGFjaXR5PSIxLjAwMDAwMCIgZmlsbD0iI0ZERERCMSIvPiYjeGE7ICA8cGF0aCBkPSJNMTI1LjgyOTYxMyw3Ny45MTA5MDQgQzEyNi4zODc1MzUsNzcuMjgyOTU5IDEyNy4zNDM2NzQsNzYuNjY0ODQxIDEyOC42Mzk0MDQsNzUuOTk3NDIxIEMxMjguMDYxOTM1LDc2LjYwNTY2NyAxMjcuMTQ0ODkwLDc3LjI2MzIwNiAxMjUuODI5NjEzLDc3LjkxMDkwNCB6IiBzdHJva2U9Im5vbmUiIG9wYWNpdHk9IjEuMDAwMDAwIiBmaWxsPSIjRkRBMTAzIi8+JiN4YTsgIDxwYXRoIGQ9Ik0xMjkuMTMyMzg1LDc1LjkwNDMyNyBDMTI5LjA1NDg1NSw3NS43MDM4MjcgMTI5LjI0MjA1MCw3NS40ODY3NzggMTI5LjcxNzM3Nyw3NS4zMDI2NDMgQzEyOS43NzQzMzgsNzUuNTA1ODIxIDEyOS41NzE1MzMsNzUuNjg5OTAzIDEyOS4xMzIzODUsNzUuOTA0MzI3IHoiIHN0cm9rZT0ibm9uZSIgb3BhY2l0eT0iMS4wMDAwMDAiIGZpbGw9IiNGREExMDMiLz4mI3hhOyAgPHBhdGggZD0iTTI1NS4wNzIxMTMsNzMuNTk4MzI4IEMyNjMuMjAxMTcyLDYyLjEyNTM5NyAyNjQuNDIzMTg3LDYxLjcxMzE0MiAyNzMuMzE4NDIwLDcyLjE2ODM1MCBDMjc4LjA2MjQwOCw3Ny43NDQzMzEgMjgxLjA3NTE2NSw4NC43OTMyNTEgMjg0LjkxNjQ0Myw5MS41MzI5NTkgQzI3Ny44ODE5ODksODcuMjQ5MDY5IDI3MC44MDA0MTUsODIuNjA5NjA0IDI2My4zNzQ3MjUsNzcuODY1ODY4IEMyNjAuNDU2MzI5LDc2LjQ1MjgxMiAyNTcuODgyMDgwLDc1LjE0NDAyMCAyNTUuMDcyMTEzLDczLjU5ODMyOCB6IiBzdHJva2U9Im5vbmUiIG9wYWNpdHk9IjEuMDAwMDAwIiBmaWxsPSIjRkREREIxIi8+JiN4YTs8L3N2Zz4=;fontSize=14;" parent="1" vertex="1">
          <mxGeometry x="70" y="140" width="108.99" height="100" as="geometry" />
        </mxCell>
        <mxCell id="_0OzKZGMhKdFcqW6u8Nh-6" value="" style="endArrow=none;html=1;rounded=0;endFill=0;strokeWidth=3;strokeColor=#EA6B66;" parent="1" edge="1">
          <mxGeometry width="50" height="50" relative="1" as="geometry">
            <mxPoint x="123" y="90" as="sourcePoint" />
            <mxPoint x="513" y="90" as="targetPoint" />
          </mxGeometry>
        </mxCell>
        <mxCell id="_0OzKZGMhKdFcqW6u8Nh-7" value="" style="endArrow=none;html=1;rounded=0;exitX=0.5;exitY=0;exitDx=0;exitDy=0;strokeWidth=3;strokeColor=#EA6B66;" parent="1" source="_0OzKZGMhKdFcqW6u8Nh-5" edge="1">
          <mxGeometry width="50" height="50" relative="1" as="geometry">
            <mxPoint x="320" y="400" as="sourcePoint" />
            <mxPoint x="124" y="90" as="targetPoint" />
          </mxGeometry>
        </mxCell>
        <mxCell id="_0OzKZGMhKdFcqW6u8Nh-8" value="" style="endArrow=classic;html=1;rounded=0;strokeWidth=3;strokeColor=#EA6B66;" parent="1" edge="1">
          <mxGeometry width="50" height="50" relative="1" as="geometry">
            <mxPoint x="360" y="90" as="sourcePoint" />
            <mxPoint x="360" y="150" as="targetPoint" />
          </mxGeometry>
        </mxCell>
        <mxCell id="_0OzKZGMhKdFcqW6u8Nh-9" value="" style="endArrow=classic;html=1;rounded=0;strokeColor=#EA6B66;strokeWidth=3;" parent="1" edge="1">
          <mxGeometry width="50" height="50" relative="1" as="geometry">
            <mxPoint x="512.41" y="90" as="sourcePoint" />
            <mxPoint x="512.41" y="150" as="targetPoint" />
          </mxGeometry>
        </mxCell>
        <mxCell id="_0OzKZGMhKdFcqW6u8Nh-13" value="&lt;font color=&quot;#ea6b66&quot; style=&quot;font-size: 14px;&quot;&gt;&lt;b&gt;デプロイ&lt;/b&gt;&lt;/font&gt;" style="text;html=1;align=center;verticalAlign=middle;whiteSpace=wrap;rounded=0;" parent="1" vertex="1">
          <mxGeometry x="280" y="60" width="60" height="30" as="geometry" />
        </mxCell>
        <mxCell id="_0OzKZGMhKdFcqW6u8Nh-14" value="" style="endArrow=classic;html=1;rounded=0;strokeColor=#67AB9F;strokeWidth=3;" parent="1" edge="1">
          <mxGeometry width="50" height="50" relative="1" as="geometry">
            <mxPoint x="470" y="194.35779816513764" as="sourcePoint" />
            <mxPoint x="400" y="195" as="targetPoint" />
          </mxGeometry>
        </mxCell>
        <mxCell id="_0OzKZGMhKdFcqW6u8Nh-15" value="" style="endArrow=classic;html=1;rounded=0;strokeColor=#67AB9F;strokeWidth=3;entryX=0.5;entryY=0;entryDx=0;entryDy=0;entryPerimeter=0;" parent="1" target="_0OzKZGMhKdFcqW6u8Nh-3" edge="1">
          <mxGeometry width="50" height="50" relative="1" as="geometry">
            <mxPoint x="355" y="260" as="sourcePoint" />
            <mxPoint x="380" y="320.64220183486236" as="targetPoint" />
          </mxGeometry>
        </mxCell>
        <mxCell id="_0OzKZGMhKdFcqW6u8Nh-16" value="&lt;b&gt;&lt;font style=&quot;font-size: 14px;&quot; color=&quot;#67ab9f&quot;&gt;タイマー&lt;/font&gt;&lt;/b&gt;&lt;div&gt;&lt;b&gt;&lt;font style=&quot;font-size: 14px;&quot; color=&quot;#67ab9f&quot;&gt;実行&lt;/font&gt;&lt;/b&gt;&lt;/div&gt;" style="text;html=1;align=center;verticalAlign=middle;whiteSpace=wrap;rounded=0;" parent="1" vertex="1">
          <mxGeometry x="410" y="160" width="60" height="30" as="geometry" />
        </mxCell>
        <mxCell id="_0OzKZGMhKdFcqW6u8Nh-17" value="&lt;font color=&quot;#67ab9f&quot;&gt;&lt;span style=&quot;font-size: 14px;&quot;&gt;&lt;b&gt;起動・停止&lt;/b&gt;&lt;/span&gt;&lt;/font&gt;" style="text;html=1;align=center;verticalAlign=middle;whiteSpace=wrap;rounded=0;" parent="1" vertex="1">
          <mxGeometry x="360" y="310" width="80" height="30" as="geometry" />
        </mxCell>
        <mxCell id="HyHUpWmmqY1fTfWM4gAs-1" value="&lt;font style=&quot;font-size: 14px;&quot;&gt;template&lt;/font&gt;" style="sketch=0;outlineConnect=0;fontColor=#232F3E;gradientColor=none;fillColor=#E7157B;strokeColor=none;dashed=0;verticalLabelPosition=bottom;verticalAlign=top;align=center;html=1;fontSize=12;fontStyle=0;aspect=fixed;pointerEvents=1;shape=mxgraph.aws4.template;" vertex="1" parent="1">
          <mxGeometry x="91.99000000000001" y="370" width="65" height="78" as="geometry" />
        </mxCell>
        <mxCell id="HyHUpWmmqY1fTfWM4gAs-2" value="" style="endArrow=classic;html=1;rounded=0;strokeColor=#EA6B66;strokeWidth=3;" edge="1" parent="1">
          <mxGeometry width="50" height="50" relative="1" as="geometry">
            <mxPoint x="123.99000000000001" y="370" as="sourcePoint" />
            <mxPoint x="125" y="280" as="targetPoint" />
          </mxGeometry>
        </mxCell>
        <mxCell id="HyHUpWmmqY1fTfWM4gAs-3" value="&lt;font color=&quot;#ea6b66&quot; style=&quot;font-size: 14px;&quot;&gt;&lt;b&gt;設定&lt;/b&gt;&lt;/font&gt;" style="text;html=1;align=center;verticalAlign=middle;whiteSpace=wrap;rounded=0;" vertex="1" parent="1">
          <mxGeometry x="70" y="310" width="60" height="30" as="geometry" />
        </mxCell>
      </root>
    </mxGraphModel>
  </diagram>
</mxfile>
